<?xml version="1.0" encoding="UTF-8"?>
<svg xmlns="http://www.w3.org/2000/svg" width="24" height="24" viewBox="0 0 24 24" fill="none">
  <rect width="24" height="24" fill="white"></rect>
  <path d="M20.625 12C20.625 16.7635 16.7635 20.625 12 20.625C7.23654 20.625 3.375 16.7635 3.375 12C3.375 7.23654 7.23654 3.375 12 3.375C16.7635 3.375 20.625 7.23654 20.625 12Z" stroke="#03f" stroke-width="0.75"></path>
  <path d="M11.1928 14.6377C11.0845 14.6377 11.0304 14.5836 11.0304 14.4753V13.6631C11.0304 13.1758 11.1387 12.7752 11.3552 12.4612C11.5826 12.1471 11.9129 11.8114 12.346 11.4541C12.7467 11.1184 13.0445 10.8152 13.2394 10.5445C13.4452 10.2738 13.548 9.92726 13.548 9.50494C13.548 9.01766 13.4127 8.63324 13.1419 8.3517C12.8821 8.05932 12.5301 7.91314 12.0862 7.91314C11.6314 7.91314 11.2632 8.06474 10.9816 8.36794C10.7001 8.66031 10.5593 9.05014 10.5593 9.53743V9.95975C10.5593 10.068 10.5052 10.1222 10.3969 10.1222L9.16243 10.0572C9.05414 10.0572 9 10.0031 9 9.89477V9.53743C9 8.62783 9.28696 7.89689 9.86088 7.34463C10.4348 6.78154 11.1874 6.5 12.1186 6.5C13.0282 6.5 13.7538 6.77072 14.2952 7.31215C14.8366 7.84275 15.1073 8.55744 15.1073 9.45622C15.1073 9.93267 15.0315 10.3442 14.8799 10.6907C14.7392 11.0372 14.5659 11.3187 14.3602 11.5353C14.1653 11.7519 13.9054 11.9955 13.5805 12.2662C13.2448 12.5478 12.9958 12.7914 12.8333 12.9972C12.6709 13.2029 12.5897 13.452 12.5897 13.7444V14.4753C12.5897 14.5836 12.5355 14.6377 12.4273 14.6377H11.1928ZM11.7938 18C11.4906 18 11.2415 17.9025 11.0466 17.7076C10.8517 17.5127 10.7542 17.2637 10.7542 16.9605C10.7542 16.6573 10.8517 16.4082 11.0466 16.2133C11.2415 16.0184 11.4906 15.9209 11.7938 15.9209C12.097 15.9209 12.346 16.0184 12.541 16.2133C12.7359 16.4082 12.8333 16.6573 12.8333 16.9605C12.8333 17.2637 12.7359 17.5127 12.541 17.7076C12.346 17.9025 12.097 18 11.7938 18Z" stroke="#03f" stroke-width="0.75"></path>
</svg>
