<?xml version="1.0" encoding="UTF-8"?>
<svg xmlns="http://www.w3.org/2000/svg" width="24" height="24" viewBox="0 0 24 24" fill="none">
  <rect width="24" height="24" fill="white"></rect>
  <path d="M6.50926 8.85013L6.64854 9.19831H6.64854L6.50926 8.85013ZM16.0387 5.03839L16.1779 5.38657V5.38657L16.0387 5.03839ZM16.0387 17.1634L15.8994 17.5116L16.0387 17.1634ZM6.50926 13.3517L6.36999 13.6998L6.36999 13.6998L6.50926 13.3517ZM5.11764 17.9833L5.49264 17.9833L5.11764 17.9833ZM19 10.7259C18.7929 10.7259 18.625 10.8938 18.625 11.1009C18.625 11.308 18.7929 11.4759 19 11.4759V10.7259ZM22 11.4759C22.2071 11.4759 22.375 11.308 22.375 11.1009C22.375 10.8938 22.2071 10.7259 22 10.7259V11.4759ZM19.2119 6.81301C19.0367 6.92339 18.9841 7.15493 19.0945 7.33017C19.2048 7.50541 19.4364 7.55799 19.6116 7.44761L19.2119 6.81301ZM22.1999 5.8173C22.3751 5.70692 22.4277 5.47538 22.3173 5.30014C22.2069 5.1249 21.9754 5.07232 21.8001 5.1827L22.1999 5.8173ZM21.8649 16.8498C22.058 16.9244 22.2752 16.8283 22.3498 16.6351C22.4244 16.442 22.3283 16.2248 22.1351 16.1502L21.8649 16.8498ZM19.5469 15.1502C19.3537 15.0756 19.1366 15.1717 19.062 15.3649C18.9873 15.558 19.0834 15.7752 19.2766 15.8498L19.5469 15.1502ZM6.64854 9.19831L16.1779 5.38657L15.8994 4.69021L6.36999 8.50195L6.64854 9.19831ZM16.3897 5.52993V16.6719H17.1397V5.52993H16.3897ZM16.1779 16.8153L6.64854 13.0035L6.36999 13.6998L15.8994 17.5116L16.1779 16.8153ZM6.55147 12.8601V9.34168H5.80147V12.8601H6.55147ZM6.64854 13.0035C6.58991 12.98 6.55147 12.9233 6.55147 12.8601H5.80147C5.80147 13.2299 6.02663 13.5625 6.36999 13.6998L6.64854 13.0035ZM16.3897 16.6719C16.3897 16.7811 16.2794 16.8558 16.1779 16.8153L15.8994 17.5116C16.4935 17.7493 17.1397 17.3117 17.1397 16.6719H16.3897ZM16.1779 5.38657C16.2794 5.346 16.3897 5.42069 16.3897 5.52993H17.1397C17.1397 4.8901 16.4935 4.45258 15.8994 4.69021L16.1779 5.38657ZM6.36999 8.50195C6.02663 8.6393 5.80147 8.97186 5.80147 9.34168H6.55147C6.55147 9.27854 6.58991 9.22176 6.64854 9.19831L6.36999 8.50195ZM5.64706 8.60825H4.05882V9.35825H5.64706V8.60825ZM2.625 10.0421V12.1597H3.375V10.0421H2.625ZM4.05882 13.5935H5.64706V12.8435H4.05882V13.5935ZM6.55147 12.6891V9.51266H5.80147V12.6891H6.55147ZM5.64706 13.5935C6.14655 13.5935 6.55147 13.1886 6.55147 12.6891H5.80147C5.80147 12.7744 5.73234 12.8435 5.64706 12.8435V13.5935ZM2.625 12.1597C2.625 12.9516 3.26694 13.5935 4.05882 13.5935V12.8435C3.68116 12.8435 3.375 12.5374 3.375 12.1597H2.625ZM4.05882 8.60825C3.26694 8.60825 2.625 9.25019 2.625 10.0421H3.375C3.375 9.66441 3.68116 9.35825 4.05882 9.35825V8.60825ZM5.64706 9.35825C5.73234 9.35825 5.80147 9.42738 5.80147 9.51266H6.55147C6.55147 9.01317 6.14655 8.60825 5.64706 8.60825V9.35825ZM4.74253 13.2186L4.74264 17.9833L5.49264 17.9833L5.49253 13.2185L4.74253 13.2186ZM5.64705 18.8877H6.70588V18.1377H5.64705V18.8877ZM7.61029 17.9833V13.5671H6.86029V17.9833H7.61029ZM6.70588 18.8877C7.20538 18.8877 7.61029 18.4827 7.61029 17.9833H6.86029C6.86029 18.0685 6.79116 18.1377 6.70588 18.1377V18.8877ZM4.74264 17.9833C4.74265 18.4828 5.14756 18.8877 5.64705 18.8877V18.1377C5.56177 18.1377 5.49264 18.0685 5.49264 17.9833L4.74264 17.9833ZM19 11.4759H22V10.7259H19V11.4759ZM22.1351 16.1502L19.5469 15.1502L19.2766 15.8498L21.8649 16.8498L22.1351 16.1502ZM19.6116 7.44761L22.1999 5.8173L21.8001 5.1827L19.2119 6.81301L19.6116 7.44761Z" fill="#03f"></path>
</svg>
