<?xml version="1.0" encoding="UTF-8"?>
<svg xmlns="http://www.w3.org/2000/svg" width="24" height="24" viewBox="0 0 24 24" fill="none">
  <rect width="24" height="24" fill="white"></rect>
  <path d="M12.5556 7.13354L12.2717 7.30824V7.30824L12.5556 7.13354ZM3.54484 7.13354L3.82873 7.30824L3.54484 7.13354ZM21.0556 15.1335L20.7717 15.3082V15.3082L21.0556 15.1335ZM12.0448 15.1335L11.761 14.9588L12.0448 15.1335ZM15.0511 5.67061C14.8692 5.64239 14.6988 5.76699 14.6706 5.94891C14.6424 6.13083 14.767 6.30118 14.9489 6.32939L15.0511 5.67061ZM17.3865 7.32899L17.1334 7.54588V7.54588L17.3865 7.32899ZM18.0007 9.89095C18.0007 10.075 18.1499 10.2243 18.334 10.2243C18.5181 10.2243 18.6673 10.075 18.6673 9.89095H18.0007ZM16.6337 8.69467C16.4651 8.62081 16.2685 8.69764 16.1947 8.86627C16.1208 9.0349 16.1976 9.23148 16.3663 9.30533L16.6337 8.69467ZM18.1316 9.7146L17.9979 10.0199L18.1316 9.7146ZM18.6857 9.61015L18.9215 9.84585L18.9215 9.84585L18.6857 9.61015ZM20.18 8.58726C20.3102 8.45709 20.3102 8.24604 20.18 8.11586C20.0499 7.98569 19.8388 7.98569 19.7086 8.11586L20.18 8.58726ZM9.89324 19.2204C10.0752 19.2486 10.2455 19.124 10.2737 18.9421C10.3019 18.7602 10.1773 18.5898 9.99543 18.5616L9.89324 19.2204ZM7.55785 17.562L7.81097 17.3451L7.55785 17.562ZM6.94368 15C6.94368 14.816 6.79445 14.6667 6.61035 14.6667C6.42626 14.6667 6.27702 14.816 6.27702 15H6.94368ZM8.35569 16.3005C8.52163 16.3802 8.72077 16.3103 8.80047 16.1443C8.88018 15.9784 8.81026 15.7792 8.64431 15.6995L8.35569 16.3005ZM6.81944 15.1929L6.96376 14.8924H6.96376L6.81944 15.1929ZM6.24942 15.29L6.01372 15.0543H6.01372L6.24942 15.29ZM4.7643 16.3037C4.63412 16.4339 4.63412 16.645 4.7643 16.7751C4.89447 16.9053 5.10553 16.9053 5.2357 16.7751L4.7643 16.3037ZM4.75989 4.33333H11.3405V3.66667H4.75989V4.33333ZM11.3063 4.29912V5.4956H11.973V4.29912H11.3063ZM11.3405 5.46138H4.75989V6.12805H11.3405V5.46138ZM4.79411 5.4956V4.29912H4.12744V5.4956H4.79411ZM4.75989 5.46138C4.77879 5.46138 4.79411 5.4767 4.79411 5.4956H4.12744C4.12744 5.84489 4.4106 6.12805 4.75989 6.12805V5.46138ZM11.3063 5.4956C11.3063 5.4767 11.3216 5.46138 11.3405 5.46138V6.12805C11.6898 6.12805 11.973 5.84489 11.973 5.4956H11.3063ZM11.3405 4.33333C11.3216 4.33333 11.3063 4.31801 11.3063 4.29912H11.973C11.973 3.94983 11.6898 3.66667 11.3405 3.66667V4.33333ZM4.75989 3.66667C4.4106 3.66667 4.12744 3.94983 4.12744 4.29912H4.79411C4.79411 4.31802 4.77879 4.33333 4.75989 4.33333V3.66667ZM4.75989 7.92276H11.3405V7.2561H4.75989V7.92276ZM11.3063 7.88855V11.478H11.973V7.88855H11.3063ZM11.3405 11.4438H4.75989V12.1104H11.3405V11.4438ZM4.79411 11.478V7.88855H4.12744V11.478H4.79411ZM4.75989 11.4438C4.77879 11.4438 4.79411 11.4591 4.79411 11.478H4.12744C4.12744 11.8273 4.4106 12.1104 4.75989 12.1104V11.4438ZM11.3063 11.478C11.3063 11.4591 11.3216 11.4438 11.3405 11.4438V12.1104C11.6898 12.1104 11.973 11.8273 11.973 11.478H11.3063ZM11.3405 7.92276C11.3216 7.92276 11.3063 7.90745 11.3063 7.88855H11.973C11.973 7.53926 11.6898 7.2561 11.3405 7.2561V7.92276ZM4.75989 7.2561C4.4106 7.2561 4.12744 7.53926 4.12744 7.88855H4.79411C4.79411 7.90745 4.77879 7.92276 4.75989 7.92276V7.2561ZM11.3558 5.81985L12.2717 7.30824L12.8395 6.95884L11.9235 5.47046L11.3558 5.81985ZM12.3008 7.2561H3.79959V7.92276H12.3008V7.2561ZM3.82873 7.30824L4.74466 5.81985L4.17689 5.47046L3.26096 6.95884L3.82873 7.30824ZM3.79959 7.2561C3.80351 7.2561 3.8107 7.25756 3.81771 7.26184C3.82379 7.26556 3.82739 7.26992 3.82946 7.27362C3.83153 7.27733 3.83335 7.28268 3.83333 7.2898C3.83331 7.29802 3.83078 7.3049 3.82873 7.30824L3.26096 6.95884C3.00164 7.38023 3.30481 7.92276 3.79959 7.92276V7.2561ZM12.2717 7.30824C12.2696 7.3049 12.2671 7.29802 12.2671 7.2898C12.2671 7.28268 12.2689 7.27733 12.271 7.27362C12.273 7.26992 12.2766 7.26556 12.2827 7.26184C12.2897 7.25756 12.2969 7.2561 12.3008 7.2561V7.92276C12.7956 7.92276 13.0988 7.38023 12.8395 6.95884L12.2717 7.30824ZM7.18706 11.6275V9.08503H6.5204V11.6275H7.18706ZM7.15285 9.11924H8.94756V8.45257H7.15285V9.11924ZM8.91335 9.08503V11.7771H9.58002V9.08503H8.91335ZM8.94756 9.11924C8.92867 9.11924 8.91335 9.10392 8.91335 9.08503H9.58002C9.58002 8.73573 9.29686 8.45257 8.94756 8.45257V9.11924ZM7.18706 9.08503C7.18706 9.10392 7.17174 9.11924 7.15285 9.11924V8.45257C6.80356 8.45257 6.5204 8.73573 6.5204 9.08503H7.18706ZM13.2599 12.3333H19.8405V11.6667H13.2599V12.3333ZM19.8063 12.2991V13.4956H20.473V12.2991H19.8063ZM19.8405 13.4614H13.2599V14.128H19.8405V13.4614ZM13.2941 13.4956V12.2991H12.6274V13.4956H13.2941ZM13.2599 13.4614C13.2788 13.4614 13.2941 13.4767 13.2941 13.4956H12.6274C12.6274 13.8449 12.9106 14.128 13.2599 14.128V13.4614ZM19.8063 13.4956C19.8063 13.4767 19.8216 13.4614 19.8405 13.4614V14.128C20.1898 14.128 20.473 13.8449 20.473 13.4956H19.8063ZM19.8405 12.3333C19.8216 12.3333 19.8063 12.318 19.8063 12.2991H20.473C20.473 11.9498 20.1898 11.6667 19.8405 11.6667V12.3333ZM13.2599 11.6667C12.9106 11.6667 12.6274 11.9498 12.6274 12.2991H13.2941C13.2941 12.318 13.2788 12.3333 13.2599 12.3333V11.6667ZM13.2599 15.9228H19.8405V15.2561H13.2599V15.9228ZM19.8063 15.8885V19.478H20.473V15.8885H19.8063ZM19.8405 19.4438H13.2599V20.1104H19.8405V19.4438ZM13.2941 19.478V15.8885H12.6274V19.478H13.2941ZM13.2599 19.4438C13.2788 19.4438 13.2941 19.4591 13.2941 19.478H12.6274C12.6274 19.8273 12.9106 20.1104 13.2599 20.1104V19.4438ZM19.8063 19.478C19.8063 19.4591 19.8216 19.4438 19.8405 19.4438V20.1104C20.1898 20.1104 20.473 19.8273 20.473 19.478H19.8063ZM19.8405 15.9228C19.8216 15.9228 19.8063 15.9074 19.8063 15.8885H20.473C20.473 15.5393 20.1898 15.2561 19.8405 15.2561V15.9228ZM13.2599 15.2561C12.9106 15.2561 12.6274 15.5393 12.6274 15.8885H13.2941C13.2941 15.9074 13.2788 15.9228 13.2599 15.9228V15.2561ZM19.8558 13.8199L20.7717 15.3082L21.3395 14.9588L20.4235 13.4705L19.8558 13.8199ZM20.8008 15.2561H12.2996V15.9228H20.8008V15.2561ZM12.3287 15.3082L13.2447 13.8199L12.6769 13.4705L11.761 14.9588L12.3287 15.3082ZM12.2996 15.2561C12.3035 15.2561 12.3107 15.2576 12.3177 15.2618C12.3238 15.2656 12.3274 15.2699 12.3295 15.2736C12.3315 15.2773 12.3334 15.2827 12.3333 15.2898C12.3333 15.298 12.3308 15.3049 12.3287 15.3082L11.761 14.9588C11.5016 15.3802 11.8048 15.9228 12.2996 15.9228V15.2561ZM20.7717 15.3082C20.7696 15.3049 20.7671 15.298 20.7671 15.2898C20.7671 15.2827 20.7689 15.2773 20.771 15.2736C20.773 15.2699 20.7766 15.2656 20.7827 15.2618C20.7897 15.2576 20.7969 15.2561 20.8008 15.2561V15.9228C21.2956 15.9228 21.5988 15.3802 21.3395 14.9588L20.7717 15.3082ZM15.6871 19.6275V17.085H15.0204V19.6275H15.6871ZM15.6528 17.1192H17.4476V16.4526H15.6528V17.1192ZM17.4134 17.085V19.7771H18.08V17.085H17.4134ZM17.4476 17.1192C17.4287 17.1192 17.4134 17.1039 17.4134 17.085H18.08C18.08 16.7357 17.7969 16.4526 17.4476 16.4526V17.1192ZM15.6871 17.085C15.6871 17.1039 15.6717 17.1192 15.6528 17.1192V16.4526C15.3036 16.4526 15.0204 16.7357 15.0204 17.085H15.6871ZM14.9489 6.32939C15.7989 6.46124 16.5737 6.89272 17.1334 7.54588L17.6396 7.1121C16.9764 6.33812 16.0583 5.82684 15.0511 5.67061L14.9489 6.32939ZM17.1334 7.54588C17.6663 8.16786 17.9707 8.95181 17.9986 9.76798L18.6648 9.74524C18.6318 8.77809 18.2711 7.84913 17.6396 7.1121L17.1334 7.54588ZM17.9986 9.76798C18 9.80889 18.0007 9.84988 18.0007 9.89095H18.6673C18.6673 9.8423 18.6665 9.79372 18.6648 9.74524L17.9986 9.76798ZM16.3663 9.30533L17.9979 10.0199L18.2653 9.40926L16.6337 8.69467L16.3663 9.30533ZM18.9215 9.84585L20.18 8.58726L19.7086 8.11586L18.45 9.37445L18.9215 9.84585ZM17.9979 10.0199C18.1052 10.0669 18.2188 10.0899 18.3314 10.0899L18.3319 9.42328C18.3095 9.42326 18.2869 9.41873 18.2653 9.40926L17.9979 10.0199ZM18.3314 10.0899C18.5481 10.0901 18.7616 10.0057 18.9215 9.84585L18.45 9.37445C18.4182 9.40633 18.3756 9.42331 18.3319 9.42328L18.3314 10.0899ZM9.99543 18.5616C9.14544 18.4298 8.37063 17.9983 7.81097 17.3451L7.30472 17.7789C7.96791 18.5529 8.88604 19.0642 9.89324 19.2204L9.99543 18.5616ZM7.81097 17.3451C7.27986 16.7253 6.97574 15.9446 6.94608 15.1315L6.27986 15.1558C6.315 16.1193 6.67538 17.0444 7.30472 17.7789L7.81097 17.3451ZM6.94608 15.1315C6.94449 15.0878 6.94368 15.0439 6.94368 15H6.27702C6.27702 15.0521 6.27797 15.104 6.27986 15.1558L6.94608 15.1315ZM8.64431 15.6995L6.96376 14.8924L6.67513 15.4933L8.35569 16.3005L8.64431 15.6995ZM6.01372 15.0543L4.7643 16.3037L5.2357 16.7751L6.48512 15.5257L6.01372 15.0543ZM6.96376 14.8924C6.85392 14.8396 6.73645 14.8127 6.61954 14.8104L6.6064 15.4769C6.62966 15.4774 6.65299 15.4827 6.67513 15.4933L6.96376 14.8924ZM6.61954 14.8104C6.39787 14.806 6.17771 14.8903 6.01372 15.0543L6.48512 15.5257C6.51783 15.493 6.56172 15.476 6.6064 15.4769L6.61954 14.8104Z" fill="#03f"></path>
</svg>
