<?xml version="1.0" encoding="UTF-8"?>
<svg xmlns="http://www.w3.org/2000/svg" width="24" height="24" viewBox="0 0 24 24" fill="none">
  <rect width="24" height="24" fill="white"></rect>
  <path d="M18.8612 9.59164L19.6757 5.2537C19.7033 5.10659 19.8317 5 19.9814 5H21.8774M18.8183 7.82623H4.88936C4.6901 7.82623 4.5422 8.01095 4.58579 8.20539L6.30575 15.8791C6.3376 16.0212 6.46373 16.1222 6.60933 16.1222H17.2546C17.4025 16.1222 17.5299 16.0181 17.5594 15.8732L19.1231 8.19946C19.1624 8.00664 19.0151 7.82623 18.8183 7.82623ZM7.58432 17.6906C7.58432 18.4138 6.99816 19 6.27498 19C5.55181 19 4.96565 18.4138 4.96565 17.6906C4.96565 16.9674 5.55181 16.3813 6.27498 16.3813C6.99816 16.3813 7.58432 16.9674 7.58432 17.6906ZM18.4808 17.6906C18.4808 18.4138 17.8946 19 17.1715 19C16.4483 19 15.8621 18.4138 15.8621 17.6906C15.8621 16.9674 16.4483 16.3813 17.1715 16.3813C17.8946 16.3813 18.4808 16.9674 18.4808 17.6906Z" stroke="#03f" stroke-width="0.75" stroke-linecap="round"></path>
</svg>
