<?xml version="1.0" encoding="UTF-8"?>
<svg xmlns="http://www.w3.org/2000/svg" width="24" height="24" viewBox="0 0 24 24" fill="none">
  <rect width="24" height="24" fill="white"></rect>
  <path d="M11.6423 4.02215C11.7061 3.82595 11.9836 3.82595 12.0474 4.02215L13.7323 9.20776C13.8612 9.60453 14.2309 9.87315 14.6481 9.87315H20.1006C20.3069 9.87315 20.3927 10.1371 20.2258 10.2584L15.8146 13.4633C15.4771 13.7085 15.3359 14.1431 15.4648 14.5399L17.1497 19.7255C17.2135 19.9217 16.9889 20.0849 16.822 19.9636L12.4109 16.7587C12.0733 16.5135 11.6163 16.5135 11.2788 16.7587L6.86768 19.9636C6.70078 20.0849 6.47622 19.9217 6.53997 19.7255L8.22487 14.5399C8.35379 14.1431 8.21256 13.7085 7.87506 13.4633L3.46391 10.2584C3.29701 10.1371 3.38279 9.87315 3.58909 9.87315H9.04156C9.45874 9.87315 9.82848 9.60453 9.95739 9.20776L11.6423 4.02215Z" stroke="#03f" stroke-width="0.75"></path>
</svg>
