<?xml version="1.0" encoding="UTF-8"?>
<svg xmlns="http://www.w3.org/2000/svg" width="24" height="24" viewBox="0 0 24 24" fill="none">
  <rect width="24" height="24" fill="white"></rect>
  <path fill-rule="evenodd" clip-rule="evenodd" d="M6.54951 5.47417C6.36134 5.36956 6.13776 5.53586 6.18382 5.74616L8.80718 17.7222C8.85691 17.9492 9.16246 17.9915 9.27192 17.7864L11.0687 14.4211C11.1541 14.2611 11.3763 14.2425 11.4871 14.3861L15.2175 19.2201C15.3018 19.3294 15.4588 19.3496 15.5682 19.2652L16.8455 18.2795C16.9548 18.1952 16.975 18.0382 16.8907 17.9289L13.1414 13.0705C13.0301 12.9263 13.1054 12.7154 13.2829 12.6742L17.0384 11.8035C17.2613 11.7518 17.3034 11.4527 17.1034 11.3415L6.54951 5.47417Z" stroke="#03f" stroke-width="0.75" stroke-linejoin="round"></path>
</svg>
