<?xml version="1.0" encoding="UTF-8"?>
<svg xmlns="http://www.w3.org/2000/svg" width="24" height="24" viewBox="0 0 24 24" fill="none">
  <rect width="24" height="24" fill="white"></rect>
  <path fill-rule="evenodd" clip-rule="evenodd" d="M17.0539 9.36396C17.0539 9.26881 17.0585 9.18295 17.0532 9.09765C16.977 7.84018 16.5789 6.70926 15.7132 5.77272C14.3702 4.32006 12.6971 3.73497 10.7707 4.11109C8.59051 4.53679 7.20208 5.89334 6.61467 8.0437C6.56405 8.22887 6.49109 8.31193 6.30383 8.36191C4.80287 8.76262 3.76766 9.69964 3.24841 11.158C2.61751 12.9295 3.21758 14.8594 4.71653 16.0323C5.45444 16.6097 6.29294 16.9312 7.23019 16.9343C10.406 16.9449 13.5819 16.9529 16.7576 16.9362C18.1946 16.9286 19.2882 16.2571 20.0153 15.0278C21.083 13.2226 20.4083 10.8478 18.568 9.84052C18.1005 9.5847 17.6047 9.42339 17.0539 9.36396Z" fill="white" stroke="#03f" stroke-width="0.75"></path>
  <path d="M18.5814 19.9999C18.6629 19.9784 18.7525 19.9706 18.8259 19.9319C18.9667 19.8575 19.1002 19.7683 19.2334 19.6802C19.3935 19.5744 19.4334 19.4469 19.3647 19.2671C19.2987 19.0945 19.2313 18.9223 19.1594 18.7521C19.1183 18.6549 19.1387 18.5801 19.2022 18.4975C19.3474 18.3084 19.4875 18.1148 19.6196 17.9164C19.68 17.8257 19.7467 17.7795 19.8566 17.7881C20.0322 17.8018 20.2084 17.8094 20.3843 17.8183C20.602 17.8294 20.7117 17.7469 20.7621 17.5328C20.7939 17.3979 20.8221 17.262 20.8519 17.1264C20.9006 16.9047 20.8421 16.7876 20.6317 16.6961C20.4739 16.6275 20.3152 16.5612 20.1555 16.4973C20.0549 16.457 20.0105 16.3878 19.9963 16.2791C19.9662 16.0466 19.9297 15.8143 19.8809 15.5852C19.8567 15.4714 19.8786 15.3921 19.9649 15.3179C20.0987 15.2029 20.2284 15.0832 20.3573 14.9627C20.5078 14.822 20.5256 14.6911 20.4191 14.5134C20.3455 14.3909 20.2696 14.2698 20.1921 14.1497C20.074 13.9664 19.9591 13.9298 19.7521 14.0098C19.5915 14.0719 19.4299 14.132 19.273 14.2026C19.1584 14.2542 19.0738 14.2341 18.976 14.1549C18.8006 14.0131 18.6165 13.88 18.4253 13.7607C18.3127 13.6904 18.2701 13.61 18.2824 13.482C18.2984 13.3149 18.3054 13.1468 18.3123 12.9789C18.3209 12.7654 18.2406 12.662 18.0323 12.6125C17.8893 12.5786 17.7461 12.545 17.6025 12.5135C17.4113 12.4715 17.2978 12.5256 17.2167 12.7044C17.1406 12.8727 17.0689 13.0431 17.0002 13.2147C16.9595 13.3161 16.8929 13.3587 16.7829 13.3724C16.5464 13.402 16.3108 13.4427 16.0774 13.4911C15.9744 13.5125 15.8995 13.4961 15.8308 13.4177C15.709 13.2788 15.5845 13.1422 15.4586 13.0069C15.3237 12.8617 15.2003 12.8429 15.0327 12.9431C14.8991 13.0228 14.7674 13.1056 14.6371 13.1904C14.4719 13.2979 14.433 13.417 14.503 13.6002C14.5675 13.7689 14.6327 13.9375 14.7039 14.1034C14.7487 14.2077 14.7351 14.2885 14.6631 14.3804C14.5161 14.5682 14.3786 14.764 14.2469 14.963C14.1895 15.0499 14.1278 15.0948 14.0216 15.0868C13.8377 15.073 13.6531 15.0656 13.4686 15.0585C13.2738 15.0511 13.17 15.1225 13.1167 15.3113C13.0744 15.4608 13.0401 15.613 13.0108 15.7658C12.9712 15.9726 13.0392 16.0873 13.2381 16.1705C13.3969 16.2368 13.5547 16.3053 13.714 16.3701C13.8134 16.4104 13.8589 16.4765 13.8733 16.5874C13.9039 16.8239 13.9465 17.0594 13.9967 17.2927C14.0187 17.3956 14.0039 17.4705 13.9251 17.5399C13.7834 17.6649 13.644 17.7927 13.5069 17.9228C13.3615 18.0608 13.3426 18.1781 13.4415 18.3509C13.5187 18.4858 13.6018 18.6176 13.688 18.747C13.8001 18.9153 13.919 18.9504 14.1116 18.8759C14.2839 18.8093 14.4555 18.7408 14.6261 18.6698C14.7126 18.6337 14.7833 18.6462 14.8595 18.7027C15.061 18.8522 15.2654 18.9984 15.4742 19.1376C15.5585 19.1937 15.5923 19.2586 15.5852 19.3572C15.5719 19.5457 15.5624 19.7345 15.5554 19.9234C15.5489 20.1032 15.6359 20.2172 15.8116 20.2613C15.9542 20.2971 16.0978 20.3288 16.2413 20.3608C16.4604 20.4098 16.58 20.3462 16.6688 20.136C16.7374 19.9736 16.8099 19.8128 16.8746 19.6488C16.9118 19.5543 16.9766 19.5176 17.0738 19.5034C17.3138 19.4682 17.5535 19.4289 17.7909 19.38C17.8939 19.3589 17.969 19.3765 18.0376 19.4547C18.1593 19.5937 18.2832 19.7309 18.4106 19.8647C18.4555 19.9119 18.5134 19.9468 18.5814 19.9999Z" fill="white"></path>
  <path d="M16.6056 18.049C17.4657 18.2476 18.3238 17.7113 18.5224 16.8513C18.721 15.9912 18.1847 15.1331 17.3247 14.9345C16.4646 14.7359 15.6064 15.2722 15.4079 16.1322C15.2093 16.9923 15.7456 17.8505 16.6056 18.049Z" fill="white"></path>
  <path d="M18.5814 19.9999L18.3508 20.2956C18.4432 20.3676 18.5639 20.3924 18.6771 20.3625L18.5814 19.9999ZM18.8259 19.9319L19.001 20.2635L19.001 20.2635L18.8259 19.9319ZM19.2334 19.6802L19.0266 19.3674L19.0265 19.3674L19.2334 19.6802ZM19.3647 19.2671L19.715 19.1333L19.715 19.1333L19.3647 19.2671ZM19.1594 18.7521L19.5048 18.6061L19.5047 18.606L19.1594 18.7521ZM19.2022 18.4975L18.9048 18.269L18.9048 18.2691L19.2022 18.4975ZM19.6196 17.9164L19.9318 18.1242L19.9318 18.1241L19.6196 17.9164ZM19.8566 17.7881L19.8273 18.162L19.8275 18.162L19.8566 17.7881ZM20.3843 17.8183L20.4034 17.4438L20.4032 17.4437L20.3843 17.8183ZM20.7621 17.5328L21.1271 17.6188L21.1271 17.6188L20.7621 17.5328ZM20.8519 17.1264L21.2181 17.207L21.2182 17.2069L20.8519 17.1264ZM20.6317 16.6961L20.7813 16.3522L20.7812 16.3522L20.6317 16.6961ZM20.1555 16.4973L20.2948 16.1491L20.2948 16.1491L20.1555 16.4973ZM19.9963 16.2791L19.6245 16.3273L19.6245 16.3274L19.9963 16.2791ZM19.8809 15.5852L20.2477 15.5071L20.2477 15.507L19.8809 15.5852ZM19.9649 15.3179L20.2092 15.6024L20.2094 15.6023L19.9649 15.3179ZM20.3573 14.9627L20.1012 14.6888L20.1012 14.6888L20.3573 14.9627ZM20.4191 14.5134L20.7407 14.3206L20.7406 14.3204L20.4191 14.5134ZM20.1921 14.1497L19.8768 14.3528L19.877 14.353L20.1921 14.1497ZM19.7521 14.0098L19.8873 14.3596L19.8874 14.3596L19.7521 14.0098ZM19.273 14.2026L19.1191 13.8607L19.1191 13.8607L19.273 14.2026ZM18.976 14.1549L19.2119 13.8634L19.2118 13.8633L18.976 14.1549ZM18.4253 13.7607L18.2267 14.0788L18.2268 14.0789L18.4253 13.7607ZM18.2824 13.482L17.9091 13.4463L17.9091 13.4463L18.2824 13.482ZM18.3123 12.9789L18.6869 12.9943L18.687 12.9941L18.3123 12.9789ZM18.0323 12.6125L17.9457 12.9774L17.9458 12.9774L18.0323 12.6125ZM17.6025 12.5135L17.6829 12.1472L17.6829 12.1472L17.6025 12.5135ZM17.2167 12.7044L16.8752 12.5496L16.8751 12.5498L17.2167 12.7044ZM17.0002 13.2147L17.3483 13.3541L17.3483 13.3541L17.0002 13.2147ZM16.7829 13.3724L16.7365 13.0003L16.7363 13.0003L16.7829 13.3724ZM16.0774 13.4911L16.0012 13.124L16.0012 13.124L16.0774 13.4911ZM15.8308 13.4177L16.1129 13.1707L16.1127 13.1705L15.8308 13.4177ZM15.4586 13.0069L15.1839 13.2622L15.1841 13.2624L15.4586 13.0069ZM15.0327 12.9431L14.8404 12.6211L14.8403 12.6211L15.0327 12.9431ZM14.6371 13.1904L14.4325 12.8761L14.4325 12.8761L14.6371 13.1904ZM14.503 13.6002L14.1527 13.7341L14.1527 13.7342L14.503 13.6002ZM14.7039 14.1034L15.0486 13.9556L15.0485 13.9554L14.7039 14.1034ZM14.6631 14.3804L14.3679 14.1492L14.3679 14.1492L14.6631 14.3804ZM14.2469 14.963L13.9342 14.7561L13.9341 14.7562L14.2469 14.963ZM14.0216 15.0868L14.0497 14.7129L14.0497 14.7129L14.0216 15.0868ZM13.4686 15.0585L13.4829 14.6838L13.4829 14.6838L13.4686 15.0585ZM13.1167 15.3113L13.4776 15.4133L13.4776 15.4131L13.1167 15.3113ZM13.0108 15.7658L12.6425 15.6951L12.6425 15.6952L13.0108 15.7658ZM13.2381 16.1705L13.0934 16.5164L13.0934 16.5164L13.2381 16.1705ZM13.714 16.3701L13.5727 16.7175L13.573 16.7176L13.714 16.3701ZM13.8733 16.5874L13.5014 16.6355L13.5014 16.6356L13.8733 16.5874ZM13.9967 17.2927L14.3633 17.2141L14.3633 17.2139L13.9967 17.2927ZM13.9251 17.5399L14.1732 17.8212L14.1733 17.8211L13.9251 17.5399ZM13.5069 17.9228L13.765 18.1948L13.7651 18.1948L13.5069 17.9228ZM13.4415 18.3509L13.767 18.1647L13.767 18.1647L13.4415 18.3509ZM13.688 18.747L13.3759 18.9549L13.3759 18.9549L13.688 18.747ZM14.1116 18.8759L13.9764 18.5261L13.9763 18.5262L14.1116 18.8759ZM14.6261 18.6698L14.4819 18.3236L14.4819 18.3236L14.6261 18.6698ZM14.8595 18.7027L14.6361 19.0039L14.6361 19.0039L14.8595 18.7027ZM15.4742 19.1376L15.2662 19.4496L15.2665 19.4498L15.4742 19.1376ZM15.5852 19.3572L15.2112 19.3306L15.2112 19.3308L15.5852 19.3572ZM15.5554 19.9234L15.1807 19.9097L15.1807 19.9097L15.5554 19.9234ZM15.8116 20.2613L15.9029 19.8975L15.9029 19.8975L15.8116 20.2613ZM16.2413 20.3608L16.3231 19.9949L16.323 19.9949L16.2413 20.3608ZM16.6688 20.136L17.0142 20.282L17.0142 20.2819L16.6688 20.136ZM16.8746 19.6488L17.2235 19.7864L17.2236 19.7861L16.8746 19.6488ZM17.0738 19.5034L17.128 19.8744L17.1281 19.8744L17.0738 19.5034ZM17.7909 19.38L17.7155 19.0127L17.7153 19.0127L17.7909 19.38ZM18.0376 19.4547L18.3197 19.2077L18.3196 19.2075L18.0376 19.4547ZM18.4106 19.8647L18.139 20.1233L18.1391 20.1234L18.4106 19.8647ZM18.6771 20.3625C18.7141 20.3527 18.7166 20.3546 18.7897 20.3381C18.8411 20.3264 18.9202 20.3061 19.001 20.2635L18.6509 19.6002C18.6583 19.5963 18.6558 19.5994 18.6237 19.6066C18.6073 19.6104 18.5927 19.6132 18.5675 19.6185C18.5452 19.6231 18.5162 19.6293 18.4857 19.6373L18.6771 20.3625ZM19.001 20.2635C19.1614 20.1788 19.3113 20.0782 19.4402 19.9931L19.0265 19.3674C18.889 19.4583 18.772 19.5363 18.6508 19.6003L19.001 20.2635ZM19.4401 19.9931C19.5643 19.911 19.6866 19.7907 19.7424 19.6146C19.7979 19.4391 19.7675 19.2709 19.715 19.1333L19.0143 19.4009C19.0222 19.4216 19.0224 19.4289 19.0221 19.4255C19.0217 19.4207 19.0215 19.4066 19.0273 19.3883C19.03 19.3796 19.0335 19.372 19.0371 19.3656C19.0406 19.3594 19.0438 19.3554 19.0453 19.3535C19.0481 19.3503 19.0444 19.3556 19.0266 19.3674L19.4401 19.9931ZM19.715 19.1333C19.6484 18.959 19.5792 18.7822 19.5048 18.6061L18.8139 18.8981C18.8834 19.0624 18.9491 19.23 19.0143 19.4009L19.715 19.1333ZM19.5047 18.606C19.5056 18.608 19.5095 18.6179 19.5116 18.6344C19.5139 18.6517 19.5135 18.6709 19.5098 18.69C19.5027 18.7272 19.4876 18.7415 19.4995 18.7259L18.9048 18.2691C18.8533 18.3361 18.7962 18.429 18.7733 18.5486C18.749 18.6749 18.7697 18.7935 18.814 18.8982L19.5047 18.606ZM19.4995 18.7259C19.6491 18.5312 19.7943 18.3307 19.9318 18.1242L19.3075 17.7085C19.1808 17.8989 19.0457 18.0856 18.9048 18.269L19.4995 18.7259ZM19.9318 18.1241C19.9447 18.1048 19.9377 18.1222 19.9063 18.1402C19.8899 18.1496 19.8722 18.1561 19.8553 18.1595C19.8392 18.1627 19.8289 18.1621 19.8273 18.162L19.8858 17.4143C19.7686 17.4051 19.6466 17.4245 19.5328 17.4899C19.4255 17.5515 19.3549 17.6373 19.3074 17.7086L19.9318 18.1241ZM19.8275 18.162C20.0097 18.1762 20.1933 18.1841 20.3655 18.1928L20.4032 17.4437C20.2234 17.4347 20.0547 17.4274 19.8857 17.4143L19.8275 18.162ZM20.3652 18.1928C20.5191 18.2006 20.7026 18.1795 20.8618 18.0593C21.0206 17.9395 21.0917 17.769 21.1271 17.6188L20.3971 17.4469C20.3936 17.4616 20.3904 17.4721 20.3878 17.479C20.3853 17.486 20.3838 17.4886 20.384 17.4882C20.3843 17.4876 20.3865 17.4839 20.391 17.4785C20.3957 17.4729 20.4021 17.4667 20.41 17.4607C20.418 17.4547 20.4258 17.4502 20.4326 17.4472C20.4393 17.4442 20.4437 17.4431 20.4446 17.4429C20.4454 17.4427 20.4428 17.4434 20.4358 17.4438C20.4288 17.4443 20.4182 17.4445 20.4034 17.4438L20.3652 18.1928ZM21.1271 17.6188C21.1597 17.4804 21.1896 17.3365 21.2181 17.207L20.4856 17.0459C20.4545 17.1874 20.4281 17.3153 20.3971 17.4469L21.1271 17.6188ZM21.2182 17.2069C21.2505 17.0594 21.265 16.8728 21.1731 16.6923C21.0811 16.5117 20.9214 16.4132 20.7813 16.3522L20.4821 17.04C20.4981 17.0469 20.5094 17.0528 20.5172 17.0572C20.521 17.0594 20.5237 17.0611 20.5255 17.0623C20.5264 17.0629 20.5271 17.0634 20.5275 17.0637C20.5277 17.0639 20.5279 17.064 20.528 17.0641C20.5281 17.0641 20.5282 17.0642 20.5282 17.0642C20.5281 17.0642 20.5248 17.0615 20.52 17.0558C20.5151 17.05 20.5096 17.0421 20.5048 17.0326C20.4999 17.023 20.4968 17.014 20.495 17.0066C20.4932 16.9994 20.493 16.9951 20.493 16.9951C20.493 16.9951 20.493 16.9961 20.4929 16.9982C20.4929 17.0004 20.4927 17.0036 20.4922 17.0079C20.4913 17.0166 20.4893 17.0291 20.4856 17.046L21.2182 17.2069ZM20.7812 16.3522C20.6202 16.2822 20.4581 16.2144 20.2948 16.1491L20.0162 16.8454C20.1723 16.9079 20.3276 16.9728 20.4822 17.04L20.7812 16.3522ZM20.2948 16.1491C20.2952 16.1493 20.3032 16.1525 20.3147 16.1611C20.3267 16.1701 20.339 16.1823 20.3495 16.1971C20.3706 16.2268 20.3703 16.2469 20.3682 16.2307L19.6245 16.3274C19.6365 16.4199 19.6655 16.529 19.7375 16.6306C19.8121 16.736 19.9119 16.8037 20.0163 16.8455L20.2948 16.1491ZM20.3682 16.2308C20.3372 15.9921 20.2993 15.7492 20.2477 15.5071L19.5142 15.6634C19.5602 15.8794 19.5951 16.1011 19.6245 16.3273L20.3682 16.2308ZM20.2477 15.507C20.2437 15.4885 20.2515 15.509 20.2401 15.5463C20.2345 15.5645 20.2265 15.5797 20.2187 15.5907C20.2114 15.601 20.2066 15.6047 20.2092 15.6024L19.7206 15.0335C19.6378 15.1045 19.5617 15.1998 19.5228 15.3271C19.485 15.451 19.4938 15.5681 19.5142 15.6635L20.2477 15.507ZM20.2094 15.6023C20.3493 15.482 20.4837 15.3579 20.6134 15.2367L20.1012 14.6888C19.9732 14.8085 19.848 14.9239 19.7204 15.0336L20.2094 15.6023ZM20.6134 15.2367C20.7226 15.1346 20.83 14.9932 20.8561 14.8028C20.8821 14.6131 20.8172 14.4482 20.7407 14.3206L20.0975 14.7063C20.1045 14.7179 20.1088 14.7265 20.1114 14.7323C20.114 14.738 20.1145 14.7402 20.1142 14.7392C20.1139 14.7381 20.1128 14.7337 20.1122 14.7266C20.1117 14.7194 20.1117 14.7107 20.1131 14.701C20.1144 14.6914 20.1167 14.6828 20.1193 14.6758C20.1218 14.6689 20.1242 14.6647 20.125 14.6634C20.1257 14.6623 20.1248 14.6639 20.121 14.6684C20.1172 14.673 20.1109 14.6798 20.1012 14.6888L20.6134 15.2367ZM20.7406 14.3204C20.6645 14.1938 20.5864 14.0692 20.5072 13.9465L19.877 14.353C19.9527 14.4704 20.0265 14.5881 20.0976 14.7065L20.7406 14.3204ZM20.5074 13.9467C20.4291 13.8252 20.3102 13.6845 20.1192 13.6237C19.9296 13.5634 19.7513 13.6081 19.6169 13.66L19.8874 14.3596C19.9035 14.3533 19.9155 14.3495 19.924 14.3472C19.9324 14.3449 19.9361 14.3445 19.9358 14.3445C19.9354 14.3446 19.9305 14.3451 19.9223 14.3445C19.9138 14.3438 19.9032 14.342 19.8918 14.3384C19.8802 14.3347 19.8703 14.33 19.8625 14.3253C19.8549 14.3207 19.8507 14.317 19.8497 14.3161C19.8489 14.3154 19.8511 14.3172 19.856 14.3234C19.861 14.3295 19.8679 14.3389 19.8768 14.3528L20.5074 13.9467ZM19.6169 13.66C19.4627 13.7196 19.2879 13.7847 19.1191 13.8607L19.4269 14.5446C19.5719 14.4793 19.7204 14.4241 19.8873 14.3596L19.6169 13.66ZM19.1191 13.8607C19.1142 13.8629 19.1192 13.86 19.1322 13.8579C19.1464 13.8556 19.1645 13.8551 19.1839 13.8586C19.2222 13.8654 19.2344 13.8816 19.2119 13.8634L18.7401 14.4464C18.8155 14.5074 18.9188 14.5732 19.0525 14.597C19.1922 14.6219 19.3193 14.593 19.4269 14.5446L19.1191 13.8607ZM19.2118 13.8633C19.0259 13.713 18.8294 13.5708 18.6239 13.4426L18.2268 14.0789C18.4036 14.1892 18.5753 14.3131 18.7402 14.4465L19.2118 13.8633ZM18.624 13.4427C18.6029 13.4295 18.6224 13.4365 18.6402 13.4708C18.6487 13.4872 18.6528 13.5026 18.6545 13.5135C18.656 13.5233 18.6549 13.5259 18.6557 13.5177L17.9091 13.4463C17.8982 13.5596 17.9086 13.6888 17.9739 13.8151C18.038 13.9393 18.1352 14.0216 18.2267 14.0788L18.624 13.4427ZM18.6556 13.5178C18.6728 13.3389 18.6801 13.1607 18.6869 12.9943L17.9376 12.9636C17.9306 13.1329 17.924 13.2909 17.9091 13.4463L18.6556 13.5178ZM18.687 12.9941C18.6931 12.8436 18.6714 12.6626 18.5512 12.506C18.4318 12.3502 18.2636 12.282 18.1189 12.2477L17.9458 12.9774C17.9603 12.9809 17.9705 12.984 17.9773 12.9865C17.9841 12.9889 17.9865 12.9903 17.9858 12.9899C17.985 12.9895 17.981 12.9872 17.9752 12.9824C17.9692 12.9774 17.9625 12.9708 17.9561 12.9624C17.9496 12.954 17.9448 12.9456 17.9414 12.9382C17.9381 12.931 17.9368 12.9261 17.9365 12.9247C17.9362 12.9235 17.9368 12.9256 17.9373 12.9323C17.9378 12.9389 17.9382 12.9492 17.9376 12.9637L18.687 12.9941ZM18.1189 12.2477C17.9755 12.2136 17.8298 12.1794 17.6829 12.1472L17.5221 12.8798C17.6624 12.9106 17.8031 12.9435 17.9457 12.9774L18.1189 12.2477ZM17.6829 12.1472C17.544 12.1167 17.3714 12.1069 17.2031 12.1895C17.0334 12.2728 16.9354 12.4167 16.8752 12.5496L17.5583 12.8593C17.5683 12.837 17.5735 12.832 17.5705 12.8355C17.5687 12.8376 17.5647 12.842 17.5581 12.8473C17.5514 12.8527 17.5431 12.8581 17.5335 12.8628C17.5131 12.8728 17.4969 12.8747 17.4919 12.875C17.4887 12.8751 17.4972 12.8743 17.5221 12.8798L17.6829 12.1472ZM16.8751 12.5498C16.7962 12.7242 16.7223 12.8998 16.6521 13.0753L17.3483 13.3541C17.4154 13.1865 17.4849 13.0213 17.5584 12.859L16.8751 12.5498ZM16.6521 13.0752C16.6517 13.0763 16.6545 13.0687 16.6632 13.057C16.6724 13.0446 16.6852 13.0314 16.7013 13.0201C16.7335 12.9974 16.7556 12.9979 16.7365 13.0003L16.8293 13.7446C16.9203 13.7332 17.0307 13.7056 17.1338 13.6328C17.241 13.5571 17.3074 13.4561 17.3483 13.3541L16.6521 13.0752ZM16.7363 13.0003C16.4884 13.0314 16.2428 13.0738 16.0012 13.124L16.1537 13.8583C16.3789 13.8116 16.6044 13.7727 16.8294 13.7445L16.7363 13.0003ZM16.0012 13.124C15.9838 13.1276 16.0045 13.1202 16.0421 13.1307C16.0612 13.136 16.0783 13.1442 16.0923 13.1535C16.1055 13.1624 16.1121 13.1697 16.1129 13.1707L15.5487 13.6648C15.6212 13.7476 15.7168 13.8185 15.8403 13.853C15.9583 13.886 16.068 13.8761 16.1537 13.8583L16.0012 13.124ZM16.1127 13.1705C15.9878 13.028 15.8608 12.8886 15.7331 12.7514L15.1841 13.2624C15.3082 13.3958 15.4301 13.5296 15.5489 13.665L16.1127 13.1705ZM15.7333 12.7517C15.6361 12.647 15.4995 12.5401 15.3137 12.5122C15.1265 12.484 14.9643 12.5471 14.8404 12.6211L15.2249 13.265C15.246 13.2524 15.2532 13.2512 15.2487 13.2524C15.246 13.2532 15.2401 13.2545 15.2315 13.2551C15.2229 13.2557 15.2128 13.2554 15.2021 13.2538C15.1794 13.2504 15.1648 13.2426 15.1607 13.2401C15.1582 13.2385 15.166 13.2429 15.1839 13.2622L15.7333 12.7517ZM14.8403 12.6211C14.702 12.7038 14.5661 12.7892 14.4325 12.8761L14.8416 13.5047C14.9687 13.422 15.0963 13.3419 15.225 13.265L14.8403 12.6211ZM14.4325 12.8761C14.312 12.9546 14.1839 13.0715 14.1254 13.2503C14.0668 13.4295 14.1013 13.5996 14.1527 13.7341L14.8533 13.4663C14.8443 13.443 14.8442 13.4351 14.8445 13.4391C14.8448 13.4415 14.8451 13.4472 14.8443 13.4554C14.8434 13.4638 14.8416 13.4734 14.8382 13.4836C14.8349 13.4937 14.8308 13.5025 14.8266 13.5096C14.8225 13.5166 14.819 13.5208 14.8175 13.5225C14.8151 13.5252 14.8203 13.5186 14.8416 13.5047L14.4325 12.8761ZM14.1527 13.7342C14.2173 13.9029 14.2848 14.0778 14.3594 14.2515L15.0485 13.9554C14.9805 13.7972 14.9177 13.6349 14.8532 13.4663L14.1527 13.7342ZM14.3593 14.2512C14.361 14.2551 14.3584 14.2503 14.3565 14.2386C14.3544 14.2258 14.3537 14.209 14.3565 14.1901C14.3625 14.1511 14.3787 14.1353 14.3679 14.1492L14.9584 14.6116C15.0195 14.5336 15.0785 14.4315 15.098 14.303C15.118 14.1719 15.0907 14.0539 15.0486 13.9556L14.3593 14.2512ZM14.3679 14.1492C14.2129 14.3471 14.0695 14.5516 13.9342 14.7561L14.5597 15.1699C14.6876 14.9765 14.8192 14.7893 14.9584 14.6116L14.3679 14.1492ZM13.9341 14.7562C13.9208 14.7763 13.929 14.7569 13.9625 14.7372C13.9802 14.7268 13.9995 14.7196 14.0181 14.7157C14.0357 14.7121 14.0474 14.7127 14.0497 14.7129L13.9935 15.4608C14.109 15.4694 14.2298 15.4501 14.3426 15.3838C14.4478 15.3219 14.5155 15.2367 14.5597 15.1698L13.9341 14.7562ZM14.0497 14.7129C13.858 14.6985 13.667 14.6908 13.4829 14.6838L13.4544 15.4333C13.6392 15.4403 13.8173 15.4475 13.9935 15.4608L14.0497 14.7129ZM13.4829 14.6838C13.3418 14.6785 13.1728 14.6987 13.0223 14.8057C12.8702 14.9138 12.7955 15.0687 12.7558 15.2094L13.4776 15.4131C13.4843 15.3896 13.4887 15.3834 13.4866 15.3868C13.4854 15.3889 13.4824 15.3934 13.4771 15.3992C13.4717 15.405 13.465 15.4112 13.4569 15.4169C13.4489 15.4227 13.4411 15.4269 13.4343 15.4298C13.4277 15.4326 13.4232 15.4338 13.4218 15.4341C13.4197 15.4346 13.4287 15.4323 13.4544 15.4333L13.4829 14.6838ZM12.7559 15.2092C12.71 15.3715 12.6733 15.5346 12.6425 15.6951L13.3791 15.8364C13.4069 15.6915 13.4389 15.5501 13.4776 15.4133L12.7559 15.2092ZM12.6425 15.6952C12.6134 15.8468 12.6116 16.0284 12.7091 16.1999C12.8042 16.3672 12.9575 16.4596 13.0934 16.5164L13.3828 15.8245C13.3685 15.8185 13.3581 15.8134 13.351 15.8094C13.3439 15.8055 13.3407 15.8032 13.3403 15.8029C13.34 15.8026 13.3427 15.8046 13.3468 15.8092C13.3511 15.814 13.3562 15.8206 13.361 15.8291C13.3658 15.8376 13.3693 15.8461 13.3717 15.8538C13.374 15.8614 13.3747 15.8668 13.3749 15.869C13.3751 15.871 13.3748 15.8696 13.3752 15.8641C13.3756 15.8585 13.3766 15.8494 13.3791 15.8363L12.6425 15.6952ZM13.0934 16.5164C13.2454 16.58 13.4119 16.652 13.5727 16.7175L13.8553 16.0227C13.6975 15.9585 13.5483 15.8937 13.3828 15.8245L13.0934 16.5164ZM13.573 16.7176C13.5741 16.718 13.5672 16.7154 13.5564 16.7074C13.545 16.699 13.5325 16.6871 13.5216 16.6719C13.4993 16.6411 13.4993 16.6195 13.5014 16.6355L14.2452 16.5393C14.2329 16.4444 14.203 16.3344 14.1295 16.2327C14.0539 16.128 13.9545 16.063 13.8551 16.0226L13.573 16.7176ZM13.5014 16.6356C13.5336 16.8844 13.5782 17.1303 13.63 17.3715L14.3633 17.2139C14.3148 16.9885 14.2742 16.7634 14.2452 16.5392L13.5014 16.6356ZM13.63 17.3713C13.6341 17.3904 13.6263 17.3698 13.6365 17.3317C13.6417 17.3123 13.65 17.2946 13.6595 17.2802C13.6685 17.2665 13.676 17.2597 13.677 17.2588L14.1733 17.8211C14.2566 17.7475 14.3274 17.6508 14.3609 17.526C14.3927 17.4074 14.3813 17.2979 14.3633 17.2141L13.63 17.3713ZM13.6771 17.2587C13.5319 17.3868 13.389 17.5177 13.2487 17.6508L13.7651 18.1948C13.8989 18.0677 14.035 17.9431 14.1732 17.8212L13.6771 17.2587ZM13.2488 17.6508C13.1481 17.7463 13.0406 17.8811 13.012 18.0665C12.9831 18.2533 13.046 18.4148 13.116 18.5372L13.767 18.1647C13.7603 18.1531 13.7563 18.1448 13.7541 18.1396C13.7518 18.1344 13.7516 18.133 13.7522 18.135C13.7527 18.1372 13.754 18.1428 13.7546 18.1513C13.7551 18.16 13.7548 18.1702 13.7532 18.1811C13.7515 18.192 13.7487 18.2015 13.7457 18.2092C13.7428 18.2166 13.7402 18.221 13.7395 18.2223C13.7388 18.2234 13.7398 18.2215 13.744 18.2166C13.7482 18.2117 13.7549 18.2045 13.765 18.1948L13.2488 17.6508ZM13.116 18.5372C13.1985 18.6813 13.2863 18.8205 13.3759 18.9549L14.0001 18.5391C13.9173 18.4148 13.8389 18.2904 13.767 18.1647L13.116 18.5372ZM13.3759 18.9549C13.4565 19.076 13.5766 19.2057 13.7611 19.2614C13.9429 19.3164 14.1139 19.2771 14.2468 19.2257L13.9763 18.5262C13.9628 18.5314 13.9529 18.5345 13.9461 18.5363C13.9394 18.5381 13.9367 18.5383 13.9375 18.5383C13.9384 18.5382 13.943 18.5377 13.9506 18.5383C13.9583 18.5389 13.9677 18.5404 13.9781 18.5435C13.9885 18.5467 13.9977 18.5508 14.0053 18.5551C14.0127 18.5593 14.0173 18.563 14.0192 18.5646C14.0209 18.5661 14.0199 18.5654 14.0164 18.5613C14.0129 18.5571 14.0074 18.5501 14.0001 18.5391L13.3759 18.9549ZM14.2467 19.2257C14.4217 19.1581 14.5963 19.0884 14.7702 19.0159L14.4819 18.3236C14.3146 18.3932 14.1461 18.4606 13.9764 18.5261L14.2467 19.2257ZM14.7702 19.0159C14.7638 19.0186 14.7338 19.0288 14.6913 19.0224C14.6515 19.0165 14.6316 19.0005 14.6361 19.0039L15.0828 18.4015C15.0112 18.3483 14.9178 18.2979 14.802 18.2806C14.6835 18.263 14.5749 18.2849 14.4819 18.3236L14.7702 19.0159ZM14.6361 19.0039C14.8409 19.1558 15.0506 19.306 15.2662 19.4496L15.6821 18.8255C15.4801 18.6909 15.2812 18.5486 15.0828 18.4015L14.6361 19.0039ZM15.2665 19.4498C15.2726 19.4539 15.2492 19.4398 15.2297 19.4015C15.2204 19.3832 15.2153 19.3656 15.2129 19.3512C15.2106 19.3376 15.2112 19.3298 15.2112 19.3306L15.9593 19.3839C15.9663 19.2851 15.9546 19.1724 15.8982 19.0614C15.8425 18.952 15.7601 18.8774 15.6819 18.8253L15.2665 19.4498ZM15.2112 19.3308C15.1975 19.5242 15.1877 19.7174 15.1807 19.9097L15.9302 19.9371C15.937 19.7517 15.9463 19.5672 15.9593 19.3837L15.2112 19.3308ZM15.1807 19.9097C15.1751 20.0633 15.2089 20.2283 15.3166 20.37C15.4238 20.5112 15.5729 20.588 15.7204 20.625L15.9029 19.8975C15.8885 19.8939 15.8856 19.8913 15.8897 19.8937C15.8946 19.8967 15.9043 19.9038 15.9138 19.9164C15.9234 19.9291 15.9281 19.9408 15.9298 19.9473C15.9314 19.953 15.9297 19.9507 15.9302 19.937L15.1807 19.9097ZM15.7203 20.625C15.8687 20.6622 16.0177 20.6952 16.1596 20.7268L16.323 19.9949C16.178 19.9625 16.0397 19.9319 15.9029 19.8975L15.7203 20.625ZM16.1595 20.7268C16.311 20.7607 16.4987 20.7723 16.6788 20.6773C16.8571 20.5833 16.9545 20.4233 17.0142 20.282L16.3233 19.9901C16.3167 20.0058 16.3111 20.017 16.3068 20.0247C16.3025 20.0324 16.2999 20.0357 16.2997 20.036C16.2995 20.0362 16.3018 20.0332 16.3071 20.0287C16.3125 20.024 16.3198 20.0187 16.329 20.0139C16.3382 20.0091 16.3471 20.0058 16.3547 20.0038C16.3621 20.0019 16.3668 20.0015 16.3677 20.0015C16.3684 20.0014 16.3653 20.0017 16.3577 20.0009C16.35 20.0001 16.3387 19.9984 16.3231 19.9949L16.1595 20.7268ZM17.0142 20.2819C17.0778 20.1314 17.1569 19.9552 17.2235 19.7864L16.5258 19.5112C16.463 19.6703 16.3969 19.8158 16.3233 19.9901L17.0142 20.2819ZM17.2236 19.7861C17.2223 19.7894 17.2176 19.8003 17.2069 19.8144C17.1957 19.8292 17.1813 19.8432 17.1647 19.8546C17.1326 19.8768 17.1105 19.877 17.128 19.8744L17.0196 19.1323C16.9399 19.144 16.8368 19.1697 16.7387 19.2374C16.6347 19.3091 16.5669 19.4067 16.5257 19.5115L17.2236 19.7861ZM17.1281 19.8744C17.3721 19.8387 17.6195 19.7982 17.8666 19.7473L17.7153 19.0127C17.4875 19.0596 17.2555 19.0978 17.0195 19.1323L17.1281 19.8744ZM17.8663 19.7473C17.882 19.7441 17.861 19.7513 17.8237 19.7406C17.8051 19.7352 17.7885 19.7271 17.7751 19.7181C17.7625 19.7096 17.7563 19.7026 17.7557 19.702L18.3196 19.2075C18.2477 19.1256 18.153 19.0548 18.0305 19.0196C17.9128 18.9859 17.8028 18.9948 17.7155 19.0127L17.8663 19.7473ZM17.7555 19.7018C17.8796 19.8435 18.0071 19.9848 18.139 20.1233L18.6821 19.6061C18.5593 19.4771 18.4391 19.3439 18.3197 19.2077L17.7555 19.7018ZM18.1391 20.1234C18.184 20.1706 18.2304 20.2063 18.2635 20.231C18.3045 20.2615 18.3201 20.2717 18.3508 20.2956L18.812 19.7042C18.7906 19.6874 18.7706 19.6727 18.7537 19.6603C18.735 19.6466 18.7239 19.6387 18.7112 19.6292C18.6872 19.6114 18.6821 19.606 18.6821 19.6061L18.1391 20.1234ZM18.157 16.7669C18.005 17.4252 17.3482 17.8356 16.69 17.6836L16.5213 18.4144C17.5831 18.6596 18.6426 17.9975 18.8878 16.9356L18.157 16.7669ZM16.69 17.6836C16.0317 17.5317 15.6213 16.8748 15.7733 16.2166L15.0425 16.0479C14.7974 17.1097 15.4594 18.1693 16.5213 18.4144L16.69 17.6836ZM15.7733 16.2166C15.9252 15.5583 16.5821 15.1479 17.2403 15.2999L17.409 14.5691C16.3472 14.324 15.2876 14.986 15.0425 16.0479L15.7733 16.2166ZM17.2403 15.2999C17.8986 15.4519 18.309 16.1087 18.157 16.7669L18.8878 16.9356C19.1329 15.8738 18.4709 14.8143 17.409 14.5691L17.2403 15.2999Z" fill="#03f"></path>
</svg>
