<?xml version="1.0" encoding="UTF-8"?>
<svg xmlns="http://www.w3.org/2000/svg" width="24" height="24" viewBox="0 0 24 24" fill="none">
  <rect width="24" height="24" fill="white"></rect>
  <path d="M18.6759 8.06731L20.3836 10.8423C20.6123 11.2139 20.345 11.6923 19.9087 11.6923H4.05857C3.62228 11.6923 3.35495 11.2139 3.58361 10.8423L5.29132 8.06731M9.75285 19.2212V14.4808C9.75285 14.1728 10.0025 13.9231 10.3105 13.9231H13.6567C13.9647 13.9231 14.2144 14.1728 14.2144 14.4808V19.5M5.84901 8.34615H18.1182C18.4262 8.34615 18.6759 8.09647 18.6759 7.78846V5.55769C18.6759 5.24969 18.4262 5 18.1182 5H5.84901C5.541 5 5.29132 5.24969 5.29132 5.55769V7.78846C5.29132 8.09647 5.541 8.34615 5.84901 8.34615ZM5.84901 19.5H18.1182C18.4262 19.5 18.6759 19.2503 18.6759 18.9423V12.25C18.6759 11.942 18.4262 11.6923 18.1182 11.6923H5.84901C5.541 11.6923 5.29132 11.942 5.29132 12.25V18.9423C5.29132 19.2503 5.541 19.5 5.84901 19.5Z" stroke="#03f" stroke-width="0.75"></path>
</svg>
