<?xml version="1.0" encoding="UTF-8"?>
<svg xmlns="http://www.w3.org/2000/svg" width="65" height="64" viewBox="0 0 65 64" fill="none">
  <rect width="64" height="64" transform="translate(0.5)" fill="white"></rect>
  <path d="M40.7109 8.80737L49.8532 14.5836L29.3633 47.0136L20.221 41.2373L40.7109 8.80737Z" stroke="#0033FF" stroke-width="1.5" stroke-linejoin="round"></path>
  <path d="M19.7614 52.1295L20.1903 41.3829L29.2827 47.1276L19.7614 52.1295Z" stroke="#0033FF" stroke-width="1.5" stroke-linejoin="round"></path>
  <path d="M15.1719 8C15.0498 8.00006 14.932 8.04474 14.8406 8.12562C14.7492 8.2065 14.6905 8.318 14.6756 8.43912L14.5776 9.23033C14.5094 9.78389 14.2581 10.2988 13.8637 10.6932C13.4692 11.0876 12.9541 11.3388 12.4004 11.4069L11.609 11.5049C11.4882 11.5203 11.3772 11.5792 11.2967 11.6705C11.2163 11.7618 11.1719 11.8794 11.1719 12.0011C11.1719 12.1228 11.2163 12.2403 11.2967 12.3316C11.3772 12.423 11.4882 12.4818 11.609 12.4972L12.4004 12.5952C12.9541 12.6633 13.4692 12.9145 13.8637 13.3089C14.2581 13.7033 14.5094 14.2182 14.5776 14.7718L14.6756 15.563C14.691 15.6837 14.7499 15.7947 14.8412 15.8752C14.9326 15.9556 15.0501 16 15.1719 16C15.2936 16 15.4112 15.9556 15.5025 15.8752C15.5939 15.7947 15.6528 15.6837 15.6681 15.563L15.7662 14.7718C15.8343 14.2182 16.0856 13.7033 16.4801 13.3089C16.8746 12.9145 17.3896 12.6633 17.9433 12.5952L18.7348 12.4972C18.8555 12.4818 18.9665 12.423 19.047 12.3316C19.1275 12.2403 19.1719 12.1228 19.1719 12.0011C19.1719 11.8794 19.1275 11.7618 19.047 11.6705C18.9665 11.5792 18.8555 11.5203 18.7348 11.5049L17.9433 11.4069C17.3896 11.3388 16.8746 11.0876 16.4801 10.6932C16.0856 10.2988 15.8343 9.78389 15.7662 9.23033L15.6681 8.43912C15.6532 8.318 15.5946 8.2065 15.5032 8.12562C15.4118 8.04474 15.2939 8.00006 15.1719 8Z" fill="#0033FF"></path>
</svg>
