<?xml version="1.0" encoding="UTF-8"?>
<svg xmlns="http://www.w3.org/2000/svg" width="36" height="36" viewBox="0 0 36 36" fill="#03f">
  <rect width="36" height="36" fill="white"></rect>
  <path d="M30.25 3.4375C30.1642 3.43755 30.0813 3.46896 30.0171 3.52583C29.9528 3.58269 29.9115 3.66109 29.9011 3.74625L29.8321 4.30257C29.7842 4.6918 29.6075 5.05385 29.3302 5.33115C29.0528 5.60845 28.6906 5.78509 28.3013 5.83298L27.7448 5.9019C27.6599 5.91271 27.5819 5.95409 27.5253 6.01831C27.4687 6.08253 27.4375 6.16517 27.4375 6.25075C27.4375 6.33632 27.4687 6.41896 27.5253 6.48318C27.5819 6.5474 27.6599 6.58878 27.7448 6.59959L28.3013 6.66851C28.6906 6.7164 29.0528 6.89304 29.3302 7.17034C29.6075 7.44764 29.7842 7.80969 29.8321 8.19892L29.9011 8.75524C29.9119 8.84013 29.9533 8.91817 30.0175 8.97473C30.0817 9.03129 30.1644 9.0625 30.25 9.0625C30.3356 9.0625 30.4183 9.03129 30.4825 8.97473C30.5467 8.91817 30.5881 8.84013 30.5989 8.75524L30.6679 8.19892C30.7158 7.80969 30.8925 7.44764 31.1698 7.17034C31.4472 6.89304 31.8094 6.7164 32.1987 6.66851L32.7552 6.59959C32.8401 6.58878 32.9181 6.5474 32.9747 6.48318C33.0313 6.41896 33.0625 6.33632 33.0625 6.25075C33.0625 6.16517 33.0313 6.08253 32.9747 6.01831C32.9181 5.95409 32.8401 5.91271 32.7552 5.9019L32.1987 5.83298C31.8094 5.78509 31.4472 5.60845 31.1698 5.33115C30.8925 5.05385 30.7158 4.6918 30.6679 4.30257L30.5989 3.74625C30.5885 3.66109 30.5472 3.58269 30.4829 3.52583C30.4187 3.46896 30.3358 3.43755 30.25 3.4375Z" fill="#03f"></path>
  <path d="M9.9303 24.8001C9.73504 24.9953 9.73504 25.3119 9.9303 25.5072C10.1256 25.7025 10.4421 25.7025 10.6374 25.5072L9.9303 24.8001ZM19.725 16.2125C19.725 15.9363 19.5011 15.7125 19.225 15.7125L14.725 15.7125C14.4489 15.7125 14.225 15.9363 14.225 16.2125C14.225 16.4886 14.4489 16.7125 14.725 16.7125H18.725V20.7125C18.725 20.9886 18.9489 21.2125 19.225 21.2125C19.5011 21.2125 19.725 20.9886 19.725 20.7125V16.2125ZM18.5545 29.2645C18.2864 29.3305 18.1226 29.6014 18.1886 29.8696C18.2547 30.1377 18.5256 30.3015 18.7937 30.2355L18.5545 29.2645ZM23.9858 26.6875L23.6256 26.3408L23.9858 26.6875ZM26.8431 21.2626L27.3328 21.3635L26.8431 21.2626ZM26.3637 15.15L26.8316 14.9739V14.9739L26.3637 15.15ZM22.6957 10.2368L22.3939 10.6354V10.6354L22.6957 10.2368ZM16.9714 8.0398L16.929 8.538L16.9714 8.0398ZM6.51219 13.4595L6.94368 13.7121L6.51219 13.4595ZM4.50641 19.4197C4.51562 19.6956 4.74682 19.9119 5.0228 19.9027C5.29879 19.8935 5.51506 19.6623 5.50586 19.3863L4.50641 19.4197ZM7.62096 16.0451C7.5285 16.3053 7.66447 16.5912 7.92468 16.6836C8.18488 16.7761 8.47077 16.6401 8.56324 16.3799L7.62096 16.0451ZM10.2839 12.8722L9.94272 12.5066H9.94272L10.2839 12.8722ZM13.7675 10.9162L13.633 10.4346L13.7675 10.9162ZM21.3659 12.5051L21.0497 12.8924L21.3659 12.5051ZM23.7739 15.6931L23.3149 15.8913V15.8913L23.7739 15.6931ZM23.2244 23.4364L22.798 23.1753V23.1753L23.2244 23.4364ZM20.132 25.8243C19.8956 25.9669 19.8196 26.2743 19.9623 26.5107C20.105 26.7471 20.4123 26.8231 20.6487 26.6805L20.132 25.8243ZM10.6374 25.5072L19.5786 16.566L18.8715 15.8589L9.9303 24.8001L10.6374 25.5072ZM18.7937 30.2355C20.9097 29.7143 22.8349 28.6044 24.3461 27.0342L23.6256 26.3408C22.2454 27.7748 20.4871 28.7885 18.5545 29.2645L18.7937 30.2355ZM24.3461 27.0342C25.8573 25.4641 26.8929 23.4979 27.3328 21.3635L26.3533 21.1616C25.9516 23.111 25.0058 24.9067 23.6256 26.3408L24.3461 27.0342ZM27.3328 21.3635C27.7727 19.2291 27.5989 17.0137 26.8316 14.9739L25.8957 15.326C26.5964 17.1889 26.7551 19.2122 26.3533 21.1616L27.3328 21.3635ZM26.8316 14.9739C26.0644 12.9342 24.735 11.1535 22.9974 9.83814L22.3939 10.6354C23.9808 11.8368 25.1949 13.4631 25.8957 15.326L26.8316 14.9739ZM22.9974 9.83814C21.2599 8.52277 19.1853 7.72652 17.0139 7.5416L16.929 8.538C18.9122 8.70688 20.807 9.4341 22.3939 10.6354L22.9974 9.83814ZM17.0139 7.5416C14.8424 7.35669 12.663 7.79068 10.7281 8.79331L11.1882 9.68119C12.9554 8.76548 14.9458 8.36912 16.929 8.538L17.0139 7.5416ZM10.7281 8.79331C8.79316 9.79594 7.18182 11.3262 6.08071 13.2068L6.94368 13.7121C7.94933 11.9945 9.42098 10.5969 11.1882 9.68119L10.7281 8.79331ZM6.08071 13.2068C4.9796 15.0875 4.43376 17.2416 4.50641 19.4197L5.50586 19.3863C5.4395 17.3971 5.93802 15.4297 6.94368 13.7121L6.08071 13.2068ZM8.56324 16.3799C8.98877 15.1824 9.69587 14.1048 10.625 13.2377L9.94272 12.5066C8.89644 13.483 8.10015 14.6966 7.62096 16.0451L8.56324 16.3799ZM10.625 13.2377C11.5541 12.3707 12.678 11.7396 13.902 11.3978L13.633 10.4346C12.2546 10.8196 10.989 11.5302 9.94272 12.5066L10.625 13.2377ZM13.902 11.3978C15.126 11.0559 16.4142 11.0132 17.6581 11.2734L17.8628 10.2945C16.462 10.0016 15.0113 10.0497 13.633 10.4346L13.902 11.3978ZM17.6581 11.2734C18.9021 11.5335 20.0653 12.0888 21.0497 12.8924L21.6821 12.1178C20.5735 11.2128 19.2636 10.5875 17.8628 10.2945L17.6581 11.2734ZM21.0497 12.8924C22.0342 13.6961 22.811 14.7246 23.3149 15.8913L24.2329 15.4949C23.6655 14.181 22.7907 13.0228 21.6821 12.1178L21.0497 12.8924ZM23.3149 15.8913C23.8187 17.058 24.0347 18.3287 23.9448 19.5964L24.9423 19.6671C25.0436 18.2396 24.8003 16.8087 24.2329 15.4949L23.3149 15.8913ZM23.9448 19.5964C23.8548 20.864 23.4615 22.0915 22.798 23.1753L23.6508 23.6974C24.3981 22.4769 24.841 21.0947 24.9423 19.6671L23.9448 19.5964ZM22.798 23.1753C22.1344 24.2592 21.2201 25.1677 20.132 25.8243L20.6487 26.6805C21.874 25.9411 22.9036 24.918 23.6508 23.6974L22.798 23.1753Z" fill="#03f"></path>
</svg>
