<?xml version="1.0" encoding="UTF-8"?>
<svg xmlns="http://www.w3.org/2000/svg" width="36" height="36" viewBox="0 0 36 36" fill="none">
  <rect width="36" height="36" fill="white"></rect>
  <path d="M24.2545 9.06522C24.1091 9.06522 23.998 8.93632 24.0088 8.79136C24.016 8.69337 24.0197 8.59439 24.0197 8.49457C24.0197 6.28843 22.2156 4.5 19.9901 4.5C17.7646 4.5 15.9605 6.28843 15.9605 8.49457C15.9605 8.59439 15.9642 8.69337 15.9715 8.79136C15.9822 8.93632 15.8712 9.06522 15.7258 9.06522H11.5939C11.4621 9.06522 11.3553 9.17206 11.3553 9.30385V13.396C11.3553 13.5411 11.2268 13.6522 11.082 13.6415C10.9822 13.6342 10.8813 13.6304 10.7796 13.6304C8.55412 13.6304 6.75 15.4189 6.75 17.625C6.75 19.8311 8.55412 21.6196 10.7796 21.6196C10.8813 21.6196 10.9822 21.6158 11.082 21.6085C11.2268 21.5978 11.3553 21.7089 11.3553 21.854V25.9461C11.3553 26.0779 11.4621 26.1848 11.5939 26.1848H15.7258C15.8712 26.1848 15.9822 26.3137 15.9715 26.4586C15.9642 26.5566 15.9605 26.6556 15.9605 26.7554C15.9605 28.9616 17.7646 30.75 19.9901 30.75C22.2156 30.75 24.0197 28.9616 24.0197 26.7554C24.0197 26.6556 24.016 26.5566 24.0088 26.4586C23.998 26.3137 24.1091 26.1848 24.2545 26.1848H28.3864C28.5182 26.1848 28.625 26.0779 28.625 25.9461V21.057C28.625 20.8923 28.4617 20.7768 28.3016 20.8153C28.0545 20.8747 27.7966 20.9062 27.5313 20.9062C25.7192 20.9062 24.2501 19.4371 24.2501 17.625C24.2501 15.8128 25.7192 14.3437 27.5313 14.3437C27.7966 14.3437 28.0545 14.3752 28.3016 14.4346C28.4617 14.4731 28.625 14.3576 28.625 14.1929V9.30385C28.625 9.17206 28.5182 9.06522 28.3864 9.06522H24.2545Z" stroke="#03f"></path>
</svg>
