<?xml version="1.0" encoding="UTF-8"?>
<svg xmlns="http://www.w3.org/2000/svg" width="36" height="36" viewBox="0 0 36 36" fill="none">
  <rect width="36" height="36" fill="white"></rect>
  <path d="M8.65085 9.6425V8.96603C8.65085 8.5811 8.9629 8.26904 9.34784 8.26904H27.4775C27.8624 8.26904 28.1745 8.5811 28.1745 8.96603V27.6004C28.1745 27.9853 27.8624 28.2974 27.4775 28.2974H26.2789M12.4744 6.25895V5.19699C12.4744 4.81205 12.7864 4.5 13.1714 4.5H31.2993C31.6842 4.5 31.9963 4.81205 31.9963 5.19699V23.8331C31.9963 24.218 31.6842 24.5301 31.2993 24.5301H30.4073M23.325 31.4998H5.19702C4.81208 31.4998 4.50003 31.1878 4.50003 30.8028V12.1667C4.50003 11.7818 4.81208 11.4697 5.19702 11.4697H23.325C23.7099 11.4697 24.022 11.7818 24.022 12.1667V30.8028C24.022 31.1878 23.7099 31.4998 23.325 31.4998ZM12.4235 20.0637H9.04679C8.69406 20.0637 8.5474 20.5151 8.83277 20.7224L11.5646 22.7072C11.6922 22.7999 11.7456 22.9643 11.6968 23.1143L10.6534 26.3257C10.5444 26.6612 10.9283 26.9401 11.2137 26.7328L13.9455 24.748C14.0731 24.6553 14.2459 24.6553 14.3735 24.748L17.1053 26.7328C17.3907 26.9401 17.7747 26.6612 17.6657 26.3257L16.6222 23.1143C16.5735 22.9643 16.6269 22.7999 16.7545 22.7072L19.4863 20.7224C19.7716 20.5151 19.625 20.0637 19.2722 20.0637H15.8956C15.7378 20.0637 15.598 19.9622 15.5493 19.8121L14.5058 16.6007C14.3968 16.2653 13.9222 16.2653 13.8132 16.6007L12.7698 19.8121C12.721 19.9622 12.5812 20.0637 12.4235 20.0637Z" stroke="#03f" stroke-linecap="round"></path>
</svg>
