<?xml version="1.0" encoding="UTF-8"?>
<svg xmlns="http://www.w3.org/2000/svg" width="36" height="36" viewBox="0 0 36 36" fill="none">
  <rect width="36" height="36" fill="white"></rect>
  <path d="M15.9117 24.2226V27M11.9744 26.9996H19.8488M19.9676 24.2226H5.7454M5.7454 24.2226C5.33394 24.2226 5 23.8886 5 23.4772M5.7454 24.2226H22.2038M5 23.4772V9.7454C5 9.33319 5.33394 9 5.7454 9H26.0777C26.4891 9 26.8231 9.33319 26.8231 9.7454V15.6557M5 23.4772L5.00044 21.2115L22.2043 21.2114M26.8231 15.6557H28.1074C28.5196 15.6557 28.8528 15.9896 28.8528 16.4011V26.2545C28.8528 26.666 28.5196 26.9999 28.1074 26.9999H22.9492C22.5378 26.9999 22.2038 26.666 22.2038 26.2545V24.2226M26.8231 15.6557L22.9497 15.6552C22.5382 15.6552 22.2043 15.9891 22.2043 16.4006V21.2114M22.2038 24.2226L22.2043 21.2114M22.2043 17.5H25.5283H28.8528L28.8533 25H25.5288H22.2038" stroke="#03f" stroke-linecap="round" stroke-linejoin="round"></path>
  <path d="M31.8125 4C31.7267 4.00005 31.6438 4.03146 31.5796 4.08833C31.5153 4.14519 31.474 4.22359 31.4636 4.30875L31.3946 4.86507C31.3467 5.2543 31.17 5.61635 30.8927 5.89365C30.6153 6.17095 30.2531 6.34759 29.8638 6.39548L29.3073 6.4644C29.2224 6.47521 29.1444 6.51659 29.0878 6.58081C29.0312 6.64503 29 6.72767 29 6.81325C29 6.89882 29.0312 6.98146 29.0878 7.04568C29.1444 7.1099 29.2224 7.15128 29.3073 7.16209L29.8638 7.23101C30.2531 7.2789 30.6153 7.45554 30.8927 7.73284C31.17 8.01014 31.3467 8.37219 31.3946 8.76142L31.4636 9.31774C31.4744 9.40263 31.5158 9.48067 31.58 9.53723C31.6442 9.59379 31.7269 9.625 31.8125 9.625C31.8981 9.625 31.9808 9.59379 32.045 9.53723C32.1092 9.48067 32.1506 9.40263 32.1614 9.31774L32.2304 8.76142C32.2783 8.37219 32.455 8.01014 32.7323 7.73284C33.0097 7.45554 33.3719 7.2789 33.7612 7.23101L34.3177 7.16209C34.4026 7.15128 34.4806 7.1099 34.5372 7.04568C34.5938 6.98146 34.625 6.89882 34.625 6.81325C34.625 6.72767 34.5938 6.64503 34.5372 6.58081C34.4806 6.51659 34.4026 6.47521 34.3177 6.4644L33.7612 6.39548C33.3719 6.34759 33.0097 6.17095 32.7323 5.89365C32.455 5.61635 32.2783 5.2543 32.2304 4.86507L32.1614 4.30875C32.151 4.22359 32.1097 4.14519 32.0454 4.08833C31.9812 4.03146 31.8983 4.00005 31.8125 4Z" fill="#03f"></path>
</svg>
