<?xml version="1.0" encoding="UTF-8"?>
<svg xmlns="http://www.w3.org/2000/svg" width="36" height="36" viewBox="0 0 36 36" fill="none">
  <rect width="36" height="36" fill="white"></rect>
  <path d="M30.9408 20.9645C31.9118 21.5471 31.9118 22.9543 30.9408 23.537L18.8563 30.7877C18.3812 31.0727 17.7878 31.0727 17.3128 30.7877L5.22826 23.537C4.25725 22.9543 4.25725 21.5471 5.22826 20.9645L17.3128 13.7138C17.7878 13.4287 18.3812 13.4287 18.8563 13.7138L30.9408 20.9645Z" fill="white"></path>
  <path d="M6.08452 23.7507L20.3345 14.7507M17.3128 13.7138L5.22826 20.9645C4.25725 21.5471 4.25725 22.9543 5.22826 23.537L17.3128 30.7877C17.7878 31.0727 18.3812 31.0727 18.8563 30.7877L30.9408 23.537C31.9118 22.9543 31.9118 21.5471 30.9408 20.9645L18.8563 13.7138C18.3812 13.4287 17.7878 13.4287 17.3128 13.7138Z" stroke="#03f"></path>
  <path d="M30.9408 11.9645C31.9118 12.5471 31.9118 13.9543 30.9408 14.537L18.8563 21.7877C18.3812 22.0727 17.7878 22.0727 17.3128 21.7877L5.22826 14.537C4.25725 13.9543 4.25725 12.5471 5.22826 11.9645L17.3128 4.71376C17.7878 4.42875 18.3812 4.42875 18.8563 4.71376L30.9408 11.9645Z" fill="white"></path>
  <path d="M6.08452 14.7507L20.3345 5.75071M17.3128 4.71376L5.22826 11.9645C4.25725 12.5471 4.25725 13.9543 5.22826 14.537L17.3128 21.7877C17.7878 22.0727 18.3812 22.0727 18.8563 21.7877L30.9408 14.537C31.9118 13.9543 31.9118 12.5471 30.9408 11.9645L18.8563 4.71376C18.3812 4.42875 17.7878 4.42875 17.3128 4.71376Z" stroke="#03f"></path>
</svg>
