<?xml version="1.0" encoding="UTF-8"?>
<svg xmlns="http://www.w3.org/2000/svg" width="82" height="82" viewBox="0 0 82 82" fill="none">
  <path d="M50.2648 51.8428L44.0078 52.7188L45.1341 53.2193L51.5163 52.2182L50.2648 51.8428Z" fill="url(#paint0_linear_1378_2578)"></path>
  <path d="M1 1H56.2521C69.92 1 81 12.08 81 25.7479V81H1V1Z" fill="#F3F1EE" stroke="url(#paint1_linear_1378_2578)" stroke-width="1.75542"></path>
  <path fill-rule="evenodd" clip-rule="evenodd" d="M40.3163 36.9041L44.7256 66.5083L43.1509 66.0359L36.7917 66.7206L33.7922 46.244L13.9129 52.1576L11.761 44.8674L38.7478 36.4316L40.3163 36.9041Z" fill="url(#paint2_linear_1378_2578)"></path>
  <path fill-rule="evenodd" clip-rule="evenodd" d="M54.9084 19.042L59.3177 48.6462L57.743 48.1738L51.3838 48.8586L48.3842 28.382L28.5049 34.2955L26.3531 27.0054L53.3398 18.5695L54.9084 19.042Z" fill="url(#paint3_linear_1378_2578)"></path>
  <path fill-rule="evenodd" clip-rule="evenodd" d="M38.8662 36.4159L43.2074 66.0517L35.2778 67.1383L32.2898 46.7349L13.2456 52.4293L10.9531 44.7621L38.8662 36.4159Z" fill="url(#paint4_linear_1378_2578)"></path>
  <path fill-rule="evenodd" clip-rule="evenodd" d="M53.4582 18.5538L57.7995 48.1896L49.8699 49.2762L46.8818 28.8729L27.8377 34.5672L25.5451 26.9L53.4582 18.5538Z" fill="url(#paint5_linear_1378_2578)"></path>
  <path d="M57.7439 48.1738L49.8704 49.2761L51.2876 49.906L59.3186 48.6462L57.7439 48.1738Z" fill="url(#paint6_linear_1378_2578)"></path>
  <defs>
    <linearGradient id="paint0_linear_1378_2578" x1="49.514" y1="52.2182" x2="45.3844" y2="53.2193" gradientUnits="userSpaceOnUse">
      <stop stop-color="#032CD0"></stop>
      <stop offset="1" stop-color="#8AA1FF"></stop>
    </linearGradient>
    <linearGradient id="paint1_linear_1378_2578" x1="41" y1="1" x2="41" y2="81" gradientUnits="userSpaceOnUse">
      <stop stop-color="#8AA1FF"></stop>
      <stop offset="0.447917" stop-color="#0033FF"></stop>
      <stop offset="0.958333" stop-color="#A7B8FF"></stop>
    </linearGradient>
    <linearGradient id="paint2_linear_1378_2578" x1="30.781" y1="31.0351" x2="39.4179" y2="78.3645" gradientUnits="userSpaceOnUse">
      <stop offset="0.046875" stop-color="#0033FF"></stop>
      <stop offset="0.348958" stop-color="white"></stop>
      <stop offset="0.854167" stop-color="#0033FF"></stop>
    </linearGradient>
    <linearGradient id="paint3_linear_1378_2578" x1="45.373" y1="13.1731" x2="54.0099" y2="60.5024" gradientUnits="userSpaceOnUse">
      <stop offset="0.046875" stop-color="#0033FF"></stop>
      <stop offset="0.348958" stop-color="white"></stop>
      <stop offset="0.854167" stop-color="#0033FF"></stop>
    </linearGradient>
    <linearGradient id="paint4_linear_1378_2578" x1="39.4423" y1="36.7986" x2="17.3261" y2="74.3819" gradientUnits="userSpaceOnUse">
      <stop stop-color="#0033FF"></stop>
      <stop offset="0.437926" stop-color="#8AA1FF"></stop>
      <stop offset="1" stop-color="#FFC0C0"></stop>
    </linearGradient>
    <linearGradient id="paint5_linear_1378_2578" x1="54.0343" y1="18.9366" x2="34.9627" y2="47.9266" gradientUnits="userSpaceOnUse">
      <stop stop-color="#0033FF"></stop>
      <stop offset="0.588779" stop-color="#8AA1FF"></stop>
      <stop offset="0.994792" stop-color="#FFC0C0"></stop>
    </linearGradient>
    <linearGradient id="paint6_linear_1378_2578" x1="56.7991" y1="48.6462" x2="51.6025" y2="49.906" gradientUnits="userSpaceOnUse">
      <stop stop-color="#032CD0"></stop>
      <stop offset="1" stop-color="#8AA1FF"></stop>
    </linearGradient>
  </defs>
</svg>
