<svg width="82" height="82" viewBox="0 0 82 82" fill="none" xmlns="http://www.w3.org/2000/svg">
<path d="M1 1H56.1528C69.8755 1 81 12.1245 81 25.8472V81H1V1Z" fill="#F3F1EE" stroke="url(#paint0_linear_1378_831)" stroke-width="1.76246"/>
<g style="mix-blend-mode:hard-light" filter="url(#filter0_i_1378_831)">
<path d="M15.7558 30.6866C18.5855 27.1754 23.3264 24.8247 29.1669 24.0371C35.0075 23.2494 41.5845 24.0738 47.7721 26.3691C53.9597 28.6643 59.373 32.2877 63.0854 36.619C66.7978 40.9503 68.5783 45.7201 68.1223 50.1119L49.0389 45.6934C49.1793 44.3418 48.6313 42.8739 47.4888 41.5409C46.3462 40.2079 44.6802 39.0927 42.7759 38.3863C40.8716 37.6799 38.8475 37.4262 37.05 37.6686C35.2525 37.911 33.7934 38.6345 32.9226 39.7151L15.7558 30.6866Z" fill="url(#paint1_linear_1378_831)"/>
</g>
<g style="mix-blend-mode:hard-light" filter="url(#filter1_i_1378_831)">
<path d="M68.0837 50.4471C67.7448 53.0445 66.6231 55.4219 64.7891 57.4295C62.9551 59.4372 60.4487 61.0317 57.4274 62.1127C54.4062 63.1937 50.9356 63.7377 47.2342 63.7106C43.5328 63.6834 39.6806 63.0857 35.9201 61.955C32.1596 60.8243 28.5723 59.1851 25.3839 57.1406C22.1955 55.0961 19.4751 52.6906 17.3939 50.0754C15.3126 47.4602 13.9157 44.692 13.2909 41.945C12.6662 39.1981 13.0326 36.4969 13.9691 34.0792L19.0027 35.9942C18.2493 37.9392 18.1198 40.0841 18.6224 42.2939C19.125 44.5037 20.2488 46.7305 21.923 48.8343C23.5973 50.9381 25.7857 52.8733 28.3506 54.518C30.9156 56.1627 33.8014 57.4813 36.8265 58.3909C39.8516 59.3005 42.9505 59.7813 45.9282 59.8032C48.9058 59.825 51.6977 59.3874 54.1281 58.5178C56.5586 57.6482 58.5749 56.3655 60.0502 54.7504C61.5256 53.1353 62.428 51.2228 62.7006 49.1333L68.0837 50.4471Z" fill="url(#paint2_linear_1378_831)"/>
</g>
<g filter="url(#filter2_i_1378_831)">
<path d="M68.308 50.5035C64.9941 60.3291 50.229 64.2205 35.3292 59.1952C20.4294 54.1699 11.0373 42.1308 14.3512 32.3052C17.6651 22.4796 32.4302 18.5882 47.33 23.6135C62.2298 28.6388 71.6219 40.6779 68.308 50.5035ZM33.0267 38.604C32.0068 41.6279 34.8974 45.3331 39.4829 46.8797C44.0685 48.4263 48.6126 47.2286 49.6325 44.2047C50.6524 41.1808 47.7618 37.4756 43.1763 35.929C38.5907 34.3824 34.0466 35.5801 33.0267 38.604Z" fill="url(#paint3_linear_1378_831)"/>
</g>
<path d="M68.308 50.5035C64.9941 60.3291 50.229 64.2205 35.3292 59.1952C20.4294 54.1699 11.0373 42.1308 14.3512 32.3052C17.6651 22.4796 32.4302 18.5882 47.33 23.6135C62.2298 28.6388 71.6219 40.6779 68.308 50.5035ZM33.0267 38.604C32.0068 41.6279 34.8974 45.3331 39.4829 46.8797C44.0685 48.4263 48.6126 47.2286 49.6325 44.2047C50.6524 41.1808 47.7618 37.4756 43.1763 35.929C38.5907 34.3824 34.0466 35.5801 33.0267 38.604Z" stroke="url(#paint4_linear_1378_831)" stroke-width="0.0523361"/>
<g filter="url(#filter3_i_1378_831)">
<path d="M66.2176 54.335C64.0085 57.1355 60.5812 59.2267 56.3121 60.3787C52.0431 61.5308 47.0975 61.6992 42.0188 60.8655C36.94 60.0317 31.9246 58.2281 27.5236 55.6527C23.1225 53.0773 19.5061 49.8299 17.0717 46.2671C14.6373 42.7043 13.479 38.9641 13.7241 35.4573C13.9693 31.9506 15.6084 28.813 18.4613 26.3893C21.3142 23.9655 25.2706 22.3495 29.8958 21.7186C34.521 21.0877 39.636 21.4665 44.6789 22.8132L42.3604 35.6827C40.8084 35.2683 39.2342 35.1517 37.8107 35.3458C36.3873 35.54 35.1697 36.0374 34.2916 36.7833C33.4136 37.5292 32.9092 38.4948 32.8337 39.5741C32.7583 40.6533 33.1148 41.8044 33.864 42.9009C34.6132 43.9974 35.7262 44.9968 37.0807 45.7894C38.4351 46.582 39.9787 47.1371 41.5417 47.3937C43.1047 47.6503 44.6268 47.5985 45.9406 47.2439C47.2545 46.8894 48.3093 46.2458 48.9892 45.3839L66.2176 54.335Z" fill="url(#paint5_linear_1378_831)"/>
</g>
<path d="M66.2176 54.335C64.0085 57.1355 60.5812 59.2267 56.3121 60.3787C52.0431 61.5308 47.0975 61.6992 42.0188 60.8655C36.94 60.0317 31.9246 58.2281 27.5236 55.6527C23.1225 53.0773 19.5061 49.8299 17.0717 46.2671C14.6373 42.7043 13.479 38.9641 13.7241 35.4573C13.9693 31.9506 15.6084 28.813 18.4613 26.3893C21.3142 23.9655 25.2706 22.3495 29.8958 21.7186C34.521 21.0877 39.636 21.4665 44.6789 22.8132L42.3604 35.6827C40.8084 35.2683 39.2342 35.1517 37.8107 35.3458C36.3873 35.54 35.1697 36.0374 34.2916 36.7833C33.4136 37.5292 32.9092 38.4948 32.8337 39.5741C32.7583 40.6533 33.1148 41.8044 33.864 42.9009C34.6132 43.9974 35.7262 44.9968 37.0807 45.7894C38.4351 46.582 39.9787 47.1371 41.5417 47.3937C43.1047 47.6503 44.6268 47.5985 45.9406 47.2439C47.2545 46.8894 48.3093 46.2458 48.9892 45.3839L66.2176 54.335Z" stroke="url(#paint6_linear_1378_831)" stroke-width="0.195284"/>
<g filter="url(#filter4_d_1378_831)">
<g filter="url(#filter5_i_1378_831)">
<ellipse cx="4.12616" cy="3.44614" rx="4.12616" ry="3.44614" transform="matrix(-0.607059 0.794657 -0.891641 -0.452742 71.2439 31.1624)" fill="url(#paint7_linear_1378_831)"/>
</g>
<g filter="url(#filter6_i_1378_831)">
<ellipse cx="4.12616" cy="3.44614" rx="4.12616" ry="3.44614" transform="matrix(0.61227 -0.790649 0.888646 0.458594 59.9893 33.9434)" fill="url(#paint8_linear_1378_831)"/>
</g>
<ellipse cx="4.12616" cy="3.44614" rx="4.12616" ry="3.44614" transform="matrix(0.61227 -0.790649 0.888646 0.458594 59.9893 33.9434)" stroke="url(#paint9_linear_1378_831)" stroke-width="0.0523361"/>
</g>
<g filter="url(#filter7_di_1378_831)">
<g filter="url(#filter8_i_1378_831)">
<ellipse cx="25.4467" cy="20.6537" rx="6.33495" ry="4.17756" transform="rotate(75 25.4467 20.6537)" fill="url(#paint10_linear_1378_831)"/>
</g>
<g filter="url(#filter9_i_1378_831)">
<ellipse cx="26.0373" cy="20.267" rx="6.33495" ry="4.17756" transform="rotate(75 26.0373 20.267)" fill="url(#paint11_linear_1378_831)"/>
</g>
<ellipse cx="26.0373" cy="20.267" rx="6.33495" ry="4.17756" transform="rotate(75 26.0373 20.267)" stroke="url(#paint12_linear_1378_831)" stroke-width="0.0523361"/>
</g>
<g filter="url(#filter10_d_1378_831)">
<g filter="url(#filter11_d_1378_831)">
<g filter="url(#filter12_i_1378_831)">
<ellipse cx="26.7209" cy="55.5257" rx="3.9429" ry="3.82293" transform="rotate(105 26.7209 55.5257)" fill="url(#paint13_linear_1378_831)"/>
</g>
<g filter="url(#filter13_i_1378_831)">
<ellipse cx="26.3179" cy="55.1105" rx="3.9429" ry="3.82293" transform="rotate(-17.1828 26.3179 55.1105)" fill="url(#paint14_linear_1378_831)"/>
</g>
<ellipse cx="26.3179" cy="55.1105" rx="3.9429" ry="3.82293" transform="rotate(-17.1828 26.3179 55.1105)" stroke="url(#paint15_linear_1378_831)" stroke-width="0.0523361"/>
</g>
</g>
<defs>
<filter id="filter0_i_1378_831" x="15.7559" y="23.7463" width="52.4365" height="27.9277" filterUnits="userSpaceOnUse" color-interpolation-filters="sRGB">
<feFlood flood-opacity="0" result="BackgroundImageFix"/>
<feBlend mode="normal" in="SourceGraphic" in2="BackgroundImageFix" result="shape"/>
<feColorMatrix in="SourceAlpha" type="matrix" values="0 0 0 0 0 0 0 0 0 0 0 0 0 0 0 0 0 0 127 0" result="hardAlpha"/>
<feOffset dy="11.717"/>
<feGaussianBlur stdDeviation="0.781135"/>
<feComposite in2="hardAlpha" operator="arithmetic" k2="-1" k3="1"/>
<feColorMatrix type="matrix" values="0 0 0 0 1 0 0 0 0 0.807843 0 0 0 0 0 0 0 0 0.58 0"/>
<feBlend mode="normal" in2="shape" result="effect1_innerShadow_1378_831"/>
</filter>
<filter id="filter1_i_1378_831" x="12.981" y="34.0791" width="55.1028" height="31.1946" filterUnits="userSpaceOnUse" color-interpolation-filters="sRGB">
<feFlood flood-opacity="0" result="BackgroundImageFix"/>
<feBlend mode="normal" in="SourceGraphic" in2="BackgroundImageFix" result="shape"/>
<feColorMatrix in="SourceAlpha" type="matrix" values="0 0 0 0 0 0 0 0 0 0 0 0 0 0 0 0 0 0 127 0" result="hardAlpha"/>
<feOffset dy="1.95284"/>
<feGaussianBlur stdDeviation="0.781135"/>
<feComposite in2="hardAlpha" operator="arithmetic" k2="-1" k3="1"/>
<feColorMatrix type="matrix" values="0 0 0 0 1 0 0 0 0 0.807843 0 0 0 0 0 0 0 0 0.58 0"/>
<feBlend mode="normal" in2="shape" result="effect1_innerShadow_1378_831"/>
</filter>
<filter id="filter2_i_1378_831" x="13.6599" y="21.3914" width="55.3394" height="40.0261" filterUnits="userSpaceOnUse" color-interpolation-filters="sRGB">
<feFlood flood-opacity="0" result="BackgroundImageFix"/>
<feBlend mode="normal" in="SourceGraphic" in2="BackgroundImageFix" result="shape"/>
<feColorMatrix in="SourceAlpha" type="matrix" values="0 0 0 0 0 0 0 0 0 0 0 0 0 0 0 0 0 0 127 0" result="hardAlpha"/>
<feOffset/>
<feGaussianBlur stdDeviation="2.96133"/>
<feComposite in2="hardAlpha" operator="arithmetic" k2="-1" k3="1"/>
<feColorMatrix type="matrix" values="0 0 0 0 0.820833 0 0 0 0 0.671648 0 0 0 0 0.0444618 0 0 0 1 0"/>
<feBlend mode="normal" in2="shape" result="effect1_innerShadow_1378_831"/>
</filter>
<filter id="filter3_i_1378_831" x="13.5942" y="21.324" width="56.2883" height="45.6286" filterUnits="userSpaceOnUse" color-interpolation-filters="sRGB">
<feFlood flood-opacity="0" result="BackgroundImageFix"/>
<feBlend mode="normal" in="SourceGraphic" in2="BackgroundImageFix" result="shape"/>
<feColorMatrix in="SourceAlpha" type="matrix" values="0 0 0 0 0 0 0 0 0 0 0 0 0 0 0 0 0 0 127 0" result="hardAlpha"/>
<feOffset dx="3.51511" dy="5.46795"/>
<feGaussianBlur stdDeviation="2.96133"/>
<feComposite in2="hardAlpha" operator="arithmetic" k2="-1" k3="1"/>
<feColorMatrix type="matrix" values="0 0 0 0 0.945833 0 0 0 0 0.772415 0 0 0 0 0.0433507 0 0 0 1 0"/>
<feBlend mode="normal" in2="shape" result="effect1_innerShadow_1378_831"/>
</filter>
<filter id="filter4_d_1378_831" x="59.9035" y="28.3167" width="12.9659" height="12.8163" filterUnits="userSpaceOnUse" color-interpolation-filters="sRGB">
<feFlood flood-opacity="0" result="BackgroundImageFix"/>
<feColorMatrix in="SourceAlpha" type="matrix" values="0 0 0 0 0 0 0 0 0 0 0 0 0 0 0 0 0 0 127 0" result="hardAlpha"/>
<feOffset dx="0.781135" dy="2.16256"/>
<feGaussianBlur stdDeviation="1.22873"/>
<feComposite in2="hardAlpha" operator="out"/>
<feColorMatrix type="matrix" values="0 0 0 0 0 0 0 0 0 0 0 0 0 0 0 0 0 0 0.15 0"/>
<feBlend mode="normal" in2="BackgroundImageFix" result="effect1_dropShadow_1378_831"/>
<feBlend mode="normal" in="SourceGraphic" in2="effect1_dropShadow_1378_831" result="shape"/>
</filter>
<filter id="filter5_i_1378_831" x="61.7019" y="29.249" width="7.92896" height="8.82619" filterUnits="userSpaceOnUse" color-interpolation-filters="sRGB">
<feFlood flood-opacity="0" result="BackgroundImageFix"/>
<feBlend mode="normal" in="SourceGraphic" in2="BackgroundImageFix" result="shape"/>
<feColorMatrix in="SourceAlpha" type="matrix" values="0 0 0 0 0 0 0 0 0 0 0 0 0 0 0 0 0 0 127 0" result="hardAlpha"/>
<feOffset dy="1.95284"/>
<feGaussianBlur stdDeviation="0.781135"/>
<feComposite in2="hardAlpha" operator="arithmetic" k2="-1" k3="1"/>
<feColorMatrix type="matrix" values="0 0 0 0 1 0 0 0 0 0.807843 0 0 0 0 0 0 0 0 0.58 0"/>
<feBlend mode="normal" in2="shape" result="effect1_innerShadow_1378_831"/>
</filter>
<filter id="filter6_i_1378_831" x="61.5798" y="28.221" width="7.99634" height="7.69037" filterUnits="userSpaceOnUse" color-interpolation-filters="sRGB">
<feFlood flood-opacity="0" result="BackgroundImageFix"/>
<feBlend mode="normal" in="SourceGraphic" in2="BackgroundImageFix" result="shape"/>
<feColorMatrix in="SourceAlpha" type="matrix" values="0 0 0 0 0 0 0 0 0 0 0 0 0 0 0 0 0 0 127 0" result="hardAlpha"/>
<feOffset dy="-0.390568"/>
<feGaussianBlur stdDeviation="0.390568"/>
<feComposite in2="hardAlpha" operator="arithmetic" k2="-1" k3="1"/>
<feColorMatrix type="matrix" values="0 0 0 0 0.820833 0 0 0 0 0.671648 0 0 0 0 0.0444618 0 0 0 1 0"/>
<feBlend mode="normal" in2="shape" result="effect1_innerShadow_1378_831"/>
</filter>
<filter id="filter7_di_1378_831" x="19.5276" y="13.6353" width="14.0171" height="17.5296" filterUnits="userSpaceOnUse" color-interpolation-filters="sRGB">
<feFlood flood-opacity="0" result="BackgroundImageFix"/>
<feColorMatrix in="SourceAlpha" type="matrix" values="0 0 0 0 0 0 0 0 0 0 0 0 0 0 0 0 0 0 127 0" result="hardAlpha"/>
<feOffset dx="0.781135" dy="1.95284"/>
<feGaussianBlur stdDeviation="1.1717"/>
<feComposite in2="hardAlpha" operator="out"/>
<feColorMatrix type="matrix" values="0 0 0 0 0 0 0 0 0 0 0 0 0 0 0 0 0 0 0.15 0"/>
<feBlend mode="normal" in2="BackgroundImageFix" result="effect1_dropShadow_1378_831"/>
<feBlend mode="normal" in="SourceGraphic" in2="effect1_dropShadow_1378_831" result="shape"/>
<feColorMatrix in="SourceAlpha" type="matrix" values="0 0 0 0 0 0 0 0 0 0 0 0 0 0 0 0 0 0 127 0" result="hardAlpha"/>
<feOffset dx="0.781135" dy="1.95284"/>
<feGaussianBlur stdDeviation="1.1717"/>
<feComposite in2="hardAlpha" operator="arithmetic" k2="-1" k3="1"/>
<feColorMatrix type="matrix" values="0 0 0 0 0.591667 0 0 0 0 0.492185 0 0 0 0 0.0739583 0 0 0 0.15 0"/>
<feBlend mode="normal" in2="shape" result="effect2_innerShadow_1378_831"/>
</filter>
<filter id="filter8_i_1378_831" x="21.0898" y="14.4387" width="8.71362" height="13.9922" filterUnits="userSpaceOnUse" color-interpolation-filters="sRGB">
<feFlood flood-opacity="0" result="BackgroundImageFix"/>
<feBlend mode="normal" in="SourceGraphic" in2="BackgroundImageFix" result="shape"/>
<feColorMatrix in="SourceAlpha" type="matrix" values="0 0 0 0 0 0 0 0 0 0 0 0 0 0 0 0 0 0 127 0" result="hardAlpha"/>
<feOffset dy="1.95284"/>
<feGaussianBlur stdDeviation="0.781135"/>
<feComposite in2="hardAlpha" operator="arithmetic" k2="-1" k3="1"/>
<feColorMatrix type="matrix" values="0 0 0 0 1 0 0 0 0 0.807843 0 0 0 0 0 0 0 0 0.58 0"/>
<feBlend mode="normal" in2="shape" result="effect1_innerShadow_1378_831"/>
</filter>
<filter id="filter9_i_1378_831" x="21.6543" y="13.6353" width="8.76587" height="12.8727" filterUnits="userSpaceOnUse" color-interpolation-filters="sRGB">
<feFlood flood-opacity="0" result="BackgroundImageFix"/>
<feBlend mode="normal" in="SourceGraphic" in2="BackgroundImageFix" result="shape"/>
<feColorMatrix in="SourceAlpha" type="matrix" values="0 0 0 0 0 0 0 0 0 0 0 0 0 0 0 0 0 0 127 0" result="hardAlpha"/>
<feOffset dy="-0.390568"/>
<feGaussianBlur stdDeviation="0.390568"/>
<feComposite in2="hardAlpha" operator="arithmetic" k2="-1" k3="1"/>
<feColorMatrix type="matrix" values="0 0 0 0 0.820833 0 0 0 0 0.671648 0 0 0 0 0.0444618 0 0 0 1 0"/>
<feBlend mode="normal" in2="shape" result="effect1_innerShadow_1378_831"/>
</filter>
<filter id="filter10_d_1378_831" x="20.7959" y="50.8592" width="12.8816" height="12.8987" filterUnits="userSpaceOnUse" color-interpolation-filters="sRGB">
<feFlood flood-opacity="0" result="BackgroundImageFix"/>
<feColorMatrix in="SourceAlpha" type="matrix" values="0 0 0 0 0 0 0 0 0 0 0 0 0 0 0 0 0 0 127 0" result="hardAlpha"/>
<feOffset dx="0.781135" dy="1.95284"/>
<feGaussianBlur stdDeviation="1.1717"/>
<feComposite in2="hardAlpha" operator="out"/>
<feColorMatrix type="matrix" values="0 0 0 0 0 0 0 0 0 0 0 0 0 0 0 0 0 0 0.15 0"/>
<feBlend mode="normal" in2="BackgroundImageFix" result="effect1_dropShadow_1378_831"/>
<feBlend mode="normal" in="SourceGraphic" in2="effect1_dropShadow_1378_831" result="shape"/>
</filter>
<filter id="filter11_d_1378_831" x="17.8194" y="50.1151" width="13.8683" height="13.8854" filterUnits="userSpaceOnUse" color-interpolation-filters="sRGB">
<feFlood flood-opacity="0" result="BackgroundImageFix"/>
<feColorMatrix in="SourceAlpha" type="matrix" values="0 0 0 0 0 0 0 0 0 0 0 0 0 0 0 0 0 0 127 0" result="hardAlpha"/>
<feOffset dx="-1.70205" dy="1.70205"/>
<feGaussianBlur stdDeviation="1.41837"/>
<feColorMatrix type="matrix" values="0 0 0 0 0 0 0 0 0 0 0 0 0 0 0 0 0 0 0.25 0"/>
<feBlend mode="normal" in2="BackgroundImageFix" result="effect1_dropShadow_1378_831"/>
<feBlend mode="normal" in="SourceGraphic" in2="effect1_dropShadow_1378_831" result="shape"/>
</filter>
<filter id="filter12_i_1378_831" x="22.8889" y="51.5896" width="7.66406" height="9.43434" filterUnits="userSpaceOnUse" color-interpolation-filters="sRGB">
<feFlood flood-opacity="0" result="BackgroundImageFix"/>
<feBlend mode="normal" in="SourceGraphic" in2="BackgroundImageFix" result="shape"/>
<feColorMatrix in="SourceAlpha" type="matrix" values="0 0 0 0 0 0 0 0 0 0 0 0 0 0 0 0 0 0 127 0" result="hardAlpha"/>
<feOffset dy="1.95284"/>
<feGaussianBlur stdDeviation="0.781135"/>
<feComposite in2="hardAlpha" operator="arithmetic" k2="-1" k3="1"/>
<feColorMatrix type="matrix" values="0 0 0 0 1 0 0 0 0 0.807843 0 0 0 0 0 0 0 0 0.58 0"/>
<feBlend mode="normal" in2="shape" result="effect1_innerShadow_1378_831"/>
</filter>
<filter id="filter13_i_1378_831" x="21.9676" y="51.2498" width="8.31025" height="7.72144" filterUnits="userSpaceOnUse" color-interpolation-filters="sRGB">
<feFlood flood-opacity="0" result="BackgroundImageFix"/>
<feBlend mode="normal" in="SourceGraphic" in2="BackgroundImageFix" result="shape"/>
<feColorMatrix in="SourceAlpha" type="matrix" values="0 0 0 0 0 0 0 0 0 0 0 0 0 0 0 0 0 0 127 0" result="hardAlpha"/>
<feOffset dx="-0.390568"/>
<feGaussianBlur stdDeviation="0.390568"/>
<feComposite in2="hardAlpha" operator="arithmetic" k2="-1" k3="1"/>
<feColorMatrix type="matrix" values="0 0 0 0 0.820833 0 0 0 0 0.671648 0 0 0 0 0.0444618 0 0 0 1 0"/>
<feBlend mode="normal" in2="shape" result="effect1_innerShadow_1378_831"/>
</filter>
<linearGradient id="paint0_linear_1378_831" x1="41" y1="1" x2="41" y2="81" gradientUnits="userSpaceOnUse">
<stop stop-color="#27CC8D"/>
<stop offset="1" stop-color="#FFCE00"/>
</linearGradient>
<linearGradient id="paint1_linear_1378_831" x1="56.5851" y1="41.2468" x2="35.2134" y2="28.2264" gradientUnits="userSpaceOnUse">
<stop offset="0.140625" stop-color="#29A573"/>
<stop offset="0.525913" stop-color="white"/>
<stop offset="1" stop-color="#FFCE00"/>
</linearGradient>
<linearGradient id="paint2_linear_1378_831" x1="55.036" y1="61.0051" x2="34.9316" y2="34.465" gradientUnits="userSpaceOnUse">
<stop stop-color="#29A573"/>
<stop offset="0.525913" stop-color="#EFF1F0"/>
<stop offset="1" stop-color="#EDC002"/>
</linearGradient>
<linearGradient id="paint3_linear_1378_831" x1="30.0466" y1="21.1006" x2="72.4368" y2="40.7798" gradientUnits="userSpaceOnUse">
<stop stop-color="#27CC8D"/>
<stop offset="0.599247" stop-color="#FFCE00"/>
<stop offset="1" stop-color="#FFDE55"/>
</linearGradient>
<linearGradient id="paint4_linear_1378_831" x1="-24.9928" y1="-2.56023" x2="8.45111" y2="-96.3804" gradientUnits="userSpaceOnUse">
<stop stop-color="white"/>
<stop offset="1" stop-color="#FFCE00"/>
</linearGradient>
<linearGradient id="paint5_linear_1378_831" x1="-130.094" y1="-97.2573" x2="-10.7449" y2="85.7362" gradientUnits="userSpaceOnUse">
<stop stop-color="#FFCE00"/>
<stop offset="0.453125" stop-color="#27CC8D"/>
<stop offset="1" stop-color="#FFDE55"/>
</linearGradient>
<linearGradient id="paint6_linear_1378_831" x1="75.7626" y1="56.5499" x2="33.3763" y2="58.2887" gradientUnits="userSpaceOnUse">
<stop stop-color="#FFCE00"/>
<stop offset="1" stop-color="#F9F8F7" stop-opacity="0.79"/>
</linearGradient>
<linearGradient id="paint7_linear_1378_831" x1="6.17405" y1="3.11097" x2="3.40633" y2="1.90425" gradientUnits="userSpaceOnUse">
<stop stop-color="#29A573"/>
<stop offset="0.525913" stop-color="#EFF1F0"/>
<stop offset="1" stop-color="#EDC002"/>
</linearGradient>
<linearGradient id="paint8_linear_1378_831" x1="-3.25105" y1="1.02719" x2="6.89887" y2="1.91334" gradientUnits="userSpaceOnUse">
<stop stop-color="#27CC8D"/>
<stop offset="0.385374" stop-color="#FFCE00"/>
<stop offset="1" stop-color="#FFDE55"/>
</linearGradient>
<linearGradient id="paint9_linear_1378_831" x1="-7.01761" y1="-0.309776" x2="-6.621" y2="-18.5855" gradientUnits="userSpaceOnUse">
<stop stop-color="white"/>
<stop offset="1" stop-color="#FFCE00"/>
</linearGradient>
<linearGradient id="paint10_linear_1378_831" x1="29.7216" y1="22.0604" x2="21.8959" y2="19.0453" gradientUnits="userSpaceOnUse">
<stop stop-color="#29A573"/>
<stop offset="0.525913" stop-color="#EFF1F0"/>
<stop offset="1" stop-color="#EDC002"/>
</linearGradient>
<linearGradient id="paint11_linear_1378_831" x1="14.7109" y1="17.3346" x2="30.2233" y2="19.0499" gradientUnits="userSpaceOnUse">
<stop stop-color="#27CC8D"/>
<stop offset="0.385374" stop-color="#FFCE00"/>
<stop offset="1" stop-color="#FFDE55"/>
</linearGradient>
<linearGradient id="paint12_linear_1378_831" x1="8.92807" y1="15.7139" x2="9.30775" y2="-6.44459" gradientUnits="userSpaceOnUse">
<stop stop-color="white"/>
<stop offset="1" stop-color="#FFCE00"/>
</linearGradient>
<linearGradient id="paint13_linear_1378_831" x1="29.3817" y1="56.813" x2="24.1473" y2="55.4413" gradientUnits="userSpaceOnUse">
<stop stop-color="#29A573"/>
<stop offset="0.525913" stop-color="#EFF1F0"/>
<stop offset="1" stop-color="#EDC002"/>
</linearGradient>
<linearGradient id="paint14_linear_1378_831" x1="19.2684" y1="52.4271" x2="28.9864" y2="53.1579" gradientUnits="userSpaceOnUse">
<stop stop-color="#27CC8D"/>
<stop offset="0.385374" stop-color="#FFCE00"/>
<stop offset="1" stop-color="#FFDE55"/>
</linearGradient>
<linearGradient id="paint15_linear_1378_831" x1="15.6691" y1="50.944" x2="16.1798" y2="30.6734" gradientUnits="userSpaceOnUse">
<stop stop-color="white"/>
<stop offset="1" stop-color="#FFCE00"/>
</linearGradient>
</defs>
</svg>
