<svg width="101" height="18" fill="none" xmlns="http://www.w3.org/2000/svg"><g clip-path="url(#a)"><path d="M11.751 5.968L18 6.875l-4.549 4.597L14.561 18 9 14.872 3.437 18l1.111-6.528L0 6.875l6.248-.907L9 0l2.752 5.968z" fill="#FFCE00"/></g><g clip-path="url(#b)"><path d="M32.4 5.968l6.249.907-4.55 4.597L35.21 18l-5.561-3.128L24.086 18l1.11-6.528-4.547-4.597 6.248-.907L29.647 0 32.4 5.968z" fill="#FFCE00"/></g><g clip-path="url(#c)"><path d="M53.048 5.968l6.25.907-4.55 4.597L55.859 18l-5.561-3.128L44.735 18l1.11-6.528-4.548-4.597 6.249-.907L50.296 0l2.752 5.968z" fill="#FFCE00"/></g><g clip-path="url(#d)"><path d="M73.697 5.968l6.249.907-4.549 4.597L76.507 18l-5.562-3.128L65.383 18l1.111-6.528-4.548-4.597 6.248-.907L70.945 0l2.752 5.968z" fill="#FFCE00"/></g><g clip-path="url(#e)"><path d="M93.891 6.178l.114.246.269.039 5.268.765-3.852 3.893-.18.182.043.253.934 5.494-4.648-2.614-.245-.138-.245.138L86.7 17.05l.934-5.494.043-.253-.18-.182-3.851-3.893 5.268-.765.268-.039.114-.247 2.297-4.983 2.297 4.984z" stroke="#FFCE00"/><path d="M86.032 18l5.562-3.128L90.5 15l.095-12.834-1.752 3.802-6.249.907 4.549 4.597L86.031 18z" fill="#FFCE00"/></g><defs><clipPath id="a"><path fill="#fff" d="M0 0H18V18H0z"/></clipPath><clipPath id="b"><path fill="#fff" transform="translate(20.649)" d="M0 0H18V18H0z"/></clipPath><clipPath id="c"><path fill="#fff" transform="translate(41.297)" d="M0 0H18V18H0z"/></clipPath><clipPath id="d"><path fill="#fff" transform="translate(61.946)" d="M0 0H18V18H0z"/></clipPath><clipPath id="e"><path fill="#fff" transform="translate(82.594)" d="M0 0H18V18H0z"/></clipPath></defs></svg>